<svg xmlns="http://www.w3.org/2000/svg" xmlns:xlink="http://www.w3.org/1999/xlink" width="79.178" height="81.309" viewBox="0 0 79.178 81.309">
  <defs>
    <clipPath id="clip-path">
      <path id="Caminho_3315" data-name="Caminho 3315" d="M0,0H79.178V-81.309H0Z" fill="none"/>
    </clipPath>
  </defs>
  <g id="Grupo_146" data-name="Grupo 146" transform="translate(0 81.309)">
    <g id="Grupo_145" data-name="Grupo 145" clip-path="url(#clip-path)">
      <g id="Grupo_144" data-name="Grupo 144" transform="translate(48.994 -10.256)">
        <path id="Caminho_3314" data-name="Caminho 3314" d="M0,0V2.376A3.786,3.786,0,0,1-3.242,6.107l-.595,2.158a2.719,2.719,0,0,1-2.631,1.991h-5.891A2.719,2.719,0,0,1-14.99,8.265l-.577-2.158a3.8,3.8,0,0,1-3.26-3.748V-.017A2.3,2.3,0,0,1-16.5-2.309H-2.326A2.327,2.327,0,0,1,0,0M10.916-32.022a19.781,19.781,0,0,1-5.7,13.9A18.261,18.261,0,0,0,.221-8.148,3.347,3.347,0,0,1-3.107-5.354H-15.72a3.315,3.315,0,0,1-3.311-2.777,18.465,18.465,0,0,0-5.025-10.005A19.8,19.8,0,0,1-29.726-31.8,20.115,20.115,0,0,1-9.541-52.048,20.165,20.165,0,0,1,10.916-32.022M-7.113-44.151A2.277,2.277,0,0,0-9.4-46.41,14.578,14.578,0,0,0-24.073-31.955,2.277,2.277,0,0,0-21.781-29.7a2.277,2.277,0,0,0,2.292-2.259A10.024,10.024,0,0,1-9.4-41.893a2.266,2.266,0,0,0,2.292-2.258M-9.4-58.623a2.277,2.277,0,0,0,2.292-2.259v-7.913A2.277,2.277,0,0,0-9.4-71.054,2.266,2.266,0,0,0-11.7-68.795v7.913A2.277,2.277,0,0,0-9.4-58.623M-36.38-32.039A2.276,2.276,0,0,0-38.672-34.3H-46.7a2.277,2.277,0,0,0-2.292,2.258A2.277,2.277,0,0,0-46.7-29.78h8.03a2.266,2.266,0,0,0,2.292-2.259M27.892-34.3h-8.03a2.276,2.276,0,0,0-2.291,2.258,2.276,2.276,0,0,0,2.291,2.259h8.03a2.277,2.277,0,0,0,2.292-2.259A2.276,2.276,0,0,0,27.892-34.3m-59.6,21.063L-37.4-7.629a2.228,2.228,0,0,0,0,3.2,2.307,2.307,0,0,0,1.613.653,2.3,2.3,0,0,0,1.612-.653l5.688-5.6a2.231,2.231,0,0,0,0-3.2,2.29,2.29,0,0,0-3.226,0m43-36.94a2.305,2.305,0,0,0,1.613-.653l5.687-5.6a2.229,2.229,0,0,0,0-3.2,2.308,2.308,0,0,0-3.242,0l-5.687,5.6a2.228,2.228,0,0,0,0,3.195,2.344,2.344,0,0,0,1.629.653m-43-.669a2.306,2.306,0,0,0,1.613.652,2.307,2.307,0,0,0,1.613-.652,2.231,2.231,0,0,0,0-3.2l-5.688-5.6a2.309,2.309,0,0,0-3.242,0,2.229,2.229,0,0,0,0,3.2ZM12.9-13.234a2.309,2.309,0,0,0-3.242,0,2.229,2.229,0,0,0,0,3.2l5.687,5.6a2.3,2.3,0,0,0,1.612.653,2.305,2.305,0,0,0,1.613-.653,2.228,2.228,0,0,0,0-3.2Z" fill="#fff"/>
      </g>
    </g>
  </g>
</svg>
