<svg xmlns="http://www.w3.org/2000/svg" xmlns:xlink="http://www.w3.org/1999/xlink" width="147.401" height="184.862" viewBox="0 0 147.401 184.862">
  <defs>
    <clipPath id="clip-path">
      <path id="Caminho_3367" data-name="Caminho 3367" d="M0,71.708H147.4V-113.154H0Z" transform="translate(0 113.154)" fill="none"/>
    </clipPath>
  </defs>
  <g id="Grupo_206" data-name="Grupo 206" transform="translate(0 113.154)">
    <g id="Grupo_205" data-name="Grupo 205" transform="translate(0 -113.154)" clip-path="url(#clip-path)">
      <g id="Grupo_204" data-name="Grupo 204" transform="translate(2.45 2.451)">
        <path id="Caminho_3366" data-name="Caminho 3366" d="M14.941,69.14l9.3-99.789h9.3l9.3,99.789ZM38.2-67.686a9.281,9.281,0,0,1-9.3,9.258,9.281,9.281,0,0,1-9.3-9.258c0-3.465,4.274-25.625,7.028-39.547a2.32,2.32,0,0,1,4.552,0C33.925-93.311,38.2-71.151,38.2-67.686ZM8.13-47.928a9.327,9.327,0,0,1,12.709,3.39,9.236,9.236,0,0,1-3.4,12.648C14.419-30.158-7-22.761-20.489-18.173A2.309,2.309,0,0,1-22.765-22.1C-12.028-31.432,5.116-46.195,8.13-47.928ZM40.357-31.89a9.236,9.236,0,0,1-3.4-12.648,9.327,9.327,0,0,1,12.709-3.39c3.014,1.733,20.158,16.5,30.9,25.831a2.309,2.309,0,0,1-2.274,3.924C64.791-22.761,43.373-30.158,40.357-31.89ZM38.2-49.168a9.281,9.281,0,0,1-9.3,9.258,9.281,9.281,0,0,1-9.3-9.258,9.283,9.283,0,0,1,9.3-9.26A9.282,9.282,0,0,1,38.2-49.168ZM50.329,48.8l68.592-8.9L87.807-25.487m19.015,41.292L46.859,21.489M96.449-4.842H44.582M94.722,41.611,74.6-10.963M48.954-18.037l18.11,63.089m-3.457,3.442V60.536M77.436,46.772V60.536M53.234,70.86H87.807V67.419a6.9,6.9,0,0,0-6.914-6.883H60.15a6.9,6.9,0,0,0-6.916,6.883Z" transform="translate(23.577 109.101)" fill="none" stroke="#2b2e34" stroke-linecap="round" stroke-linejoin="round" stroke-width="3"/>
      </g>
    </g>
  </g>
</svg>
