<svg xmlns="http://www.w3.org/2000/svg" xmlns:xlink="http://www.w3.org/1999/xlink" width="78.735" height="78.277" viewBox="0 0 78.735 78.277">
  <defs>
    <clipPath id="clip-path">
      <path id="Caminho_3294" data-name="Caminho 3294" d="M0,0H78.735V-78.277H0Z" fill="none"/>
    </clipPath>
  </defs>
  <g id="Grupo_123" data-name="Grupo 123" transform="translate(0 78.277)">
    <g id="Grupo_122" data-name="Grupo 122" clip-path="url(#clip-path)">
      <g id="Grupo_119" data-name="Grupo 119" transform="translate(78.416 -28.737)">
        <path id="Caminho_3291" data-name="Caminho 3291" d="M0,0A2.46,2.46,0,0,0-2.142-1.243H-8.3l2.48-12.772a2.442,2.442,0,0,0-1.463-2.717,2.474,2.474,0,0,0-2.975.868L-25.49,6.089a2.431,2.431,0,0,0-.155,2.525,2.473,2.473,0,0,0,2.179,1.308h6.249L-19.8,25.9a2.439,2.439,0,0,0,1.582,2.684,2.476,2.476,0,0,0,.846.15,2.47,2.47,0,0,0,2.109-1.18L-.033,2.469A2.446,2.446,0,0,0,0,0" fill="#fff"/>
      </g>
      <g id="Grupo_120" data-name="Grupo 120" transform="translate(11.482 -22.015)">
        <path id="Caminho_3292" data-name="Caminho 3292" d="M0,0H6.561A2.455,2.455,0,0,0,9.022-2.446,2.455,2.455,0,0,0,6.561-4.892H0A2.454,2.454,0,0,0-2.46-2.446,2.454,2.454,0,0,0,0,0" fill="#fff"/>
      </g>
      <g id="Grupo_121" data-name="Grupo 121" transform="translate(46.965 -17.084)">
        <path id="Caminho_3293" data-name="Caminho 3293" d="M0,0H0A8.9,8.9,0,0,1,.558-9.269L6.64-18.036a2.265,2.265,0,0,1-.3.059H4.7a2.454,2.454,0,0,1-2.46-2.447v-1.63A2.454,2.454,0,0,1,4.7-24.5H6.345a2.454,2.454,0,0,1,2.46,2.447v.9L15.79-31.226A8.851,8.851,0,0,1,18.037-33.4l-35.8-7.361a2.466,2.466,0,0,0-2.051.5,2.433,2.433,0,0,0-.908,1.9v15.153l-3.743.815L-27.085-56.3h.624A2.454,2.454,0,0,0-24-58.747a2.454,2.454,0,0,0-2.46-2.446H-41.224a2.455,2.455,0,0,0-2.461,2.446A2.455,2.455,0,0,0-41.224-56.3h.623L-43.56-18.03a5.685,5.685,0,0,0-3.4,5.124V-.855a5.73,5.73,0,0,0,5.741,5.708H6.525l.03-.176A9,9,0,0,1,0,0M-35.667-56.3h3.645l2.706,34.96-9.211,2ZM-20.72-.039h-20.5a.818.818,0,0,1-.82-.815V-12.906a.822.822,0,0,1,.643-.8l20.681-4.5Zm16.4-7.339A2.455,2.455,0,0,1-6.778-4.931h-1.64a2.454,2.454,0,0,1-2.46-2.447v-1.63a2.453,2.453,0,0,1,2.46-2.446h1.64A2.454,2.454,0,0,1-4.317-9.008Zm0-13.046a2.455,2.455,0,0,1-2.461,2.447h-1.64a2.454,2.454,0,0,1-2.46-2.447v-1.63A2.454,2.454,0,0,1-8.418-24.5h1.64a2.455,2.455,0,0,1,2.461,2.447Z" fill="#fff"/>
      </g>
    </g>
  </g>
</svg>
