<svg xmlns="http://www.w3.org/2000/svg" xmlns:xlink="http://www.w3.org/1999/xlink" width="103.5" height="103.54" viewBox="0 0 103.5 103.54">
  <defs>
    <clipPath id="clip-path">
      <path id="Caminho_3377" data-name="Caminho 3377" d="M0,0H103.5V-103.54H0Z" fill="none"/>
    </clipPath>
  </defs>
  <g id="Grupo_218" data-name="Grupo 218" transform="translate(0 103.54)">
    <g id="Grupo_217" data-name="Grupo 217" clip-path="url(#clip-path)">
      <g id="Grupo_210" data-name="Grupo 210" transform="translate(46.697)">
        <path id="Caminho_3370" data-name="Caminho 3370" d="M0,0A37.892,37.892,0,0,1-4.544-1.517a14.536,14.536,0,0,1-7.735-8.993c-.112-.339-.452-.791-.753-.85a5.771,5.771,0,0,1-2.942-9.65,6.156,6.156,0,0,1-1.621-3.977,5.467,5.467,0,0,1,2.364-4.662,1.2,1.2,0,0,0,.592-1.4,23.2,23.2,0,0,0-6.123-12.368,34.384,34.384,0,0,1-9.473-19.861A34.752,34.752,0,0,1-21.18-91.945,34.689,34.689,0,0,1,.553-103.233,35.6,35.6,0,0,1,40.015-74.418a34.383,34.383,0,0,1-8.7,30.452,24.623,24.623,0,0,0-6.561,13.017,1.308,1.308,0,0,0,.267,1.033c3.21,2.66,3.585,5.532,1.066,8.905a5.646,5.646,0,0,1,1.43,5.375,5.361,5.361,0,0,1-4.1,4.137,1.388,1.388,0,0,0-1.112,1.069A14.529,14.529,0,0,1,10.553-.189,2.178,2.178,0,0,0,10.108,0ZM21.388-30.771a27.658,27.658,0,0,1,7.34-15.215c7.752-8.542,10.295-18.558,7.647-29.768-3.921-16.594-21.215-27.383-37.8-23.834A32.6,32.6,0,0,0-27.149-70.362a31.719,31.719,0,0,0,6.216,21.616c1.432,1.948,3.179,3.663,4.651,5.585a25.817,25.817,0,0,1,5,12.376H3.362V-48.509c-1.691,0-3.3,0-4.92,0A17.869,17.869,0,0,1-18.593-61.522c-.858-3.082-.547-6.215-.6-9.334-.024-1.345.55-1.9,1.889-1.9,2.055-.008,4.111-.035,6.165,0,7.037.132,12.234,3.362,15.744,9.406.139.24.283.478.436.735.11-.1.142-.118.157-.146.1-.176.186-.356.285-.531,2.942-5.227,7.314-8.518,13.3-9.247a77.757,77.757,0,0,1,9.078-.2c.9,0,1.441.706,1.451,1.72.015,1.616.04,3.234,0,4.85-.184,6.992-3.411,12.175-9.454,15.6A18.183,18.183,0,0,1,9.807-48.5c-1.028-.047-2.059-.007-3.088-.007v17.738ZM3.256-53.884l.269-.121a29.391,29.391,0,0,0-.394-3.7C.851-67.52-7.241-70.5-15.92-69.383-17.169-56.087-6.678-50.809.5-51.894c-.244-.224-.457-.429-.679-.623q-4.3-3.759-8.59-7.52a1.669,1.669,0,0,1-.344-2.48,1.668,1.668,0,0,1,2.5.019c1.024.875,2.032,1.768,3.047,2.654l6.819,5.96m3.52.068c3.321-2.9,6.538-5.716,9.76-8.527,1.013-.884,1.973-.952,2.657-.2.711.779.528,1.771-.515,2.69-1.264,1.113-2.541,2.21-3.808,3.319C13.114-55,11.361-53.456,9.524-51.843,18.5-50.9,27.366-57.67,25.969-69.528c-1.594,0-3.2-.028-4.809.006a14.763,14.763,0,0,0-7.3,2.027A14.5,14.5,0,0,0,6.776-53.816M5.054-19.4q-8.035,0-16.071,0c-2.111,0-3.3.861-3.324,2.4s1.191,2.452,3.273,2.452q16.173,0,32.344-.009a4.879,4.879,0,0,0,1.681-.237A2.269,2.269,0,0,0,24.438-17a2.3,2.3,0,0,0-1.622-2.206,5.39,5.39,0,0,0-1.489-.185q-8.137-.02-16.273-.008m.1-8.085q-8.187,0-16.374,0c-1.923,0-3.1.907-3.121,2.4-.023,1.517,1.183,2.453,3.17,2.453H21.274a6.63,6.63,0,0,0,1.008-.039,2.472,2.472,0,0,0,2.165-2.412,2.48,2.48,0,0,0-2.213-2.371,7.53,7.53,0,0,0-1.009-.029H5.155M19.163-11.258H-8.946C-8.261-8.141-5.1-4.89-1.634-3.866a13.6,13.6,0,0,0,3.861.6A47.626,47.626,0,0,0,10.962-3.7c4.08-.792,6.71-3.566,8.2-7.554" fill="#2b2e34"/>
      </g>
      <g id="Grupo_211" data-name="Grupo 211" transform="translate(0 -68.518)">
        <path id="Caminho_3371" data-name="Caminho 3371" d="M0,0A2.219,2.219,0,0,1,2.125-1.029c2.42.059,4.842.015,7.264.021,1.273,0,1.957.6,1.928,1.663-.026,1-.7,1.563-1.927,1.565-2.422.006-4.844-.037-7.265.022A2.228,2.228,0,0,1,0,1.213Z" fill="#2b2e34"/>
      </g>
      <g id="Grupo_212" data-name="Grupo 212" transform="translate(96.806 -92.617)">
        <path id="Caminho_3372" data-name="Caminho 3372" d="M0,0A4,4,0,0,1-.94,1.1c-2.232,1.357-4.5,2.652-6.781,3.93a1.591,1.591,0,0,1-2.343-.555,1.6,1.6,0,0,1,.753-2.287c2.225-1.306,4.455-2.6,6.7-3.872A1.7,1.7,0,0,1,0,0" fill="#2b2e34"/>
      </g>
      <g id="Grupo_213" data-name="Grupo 213" transform="translate(16.97 -89.23)">
        <path id="Caminho_3373" data-name="Caminho 3373" d="M0,0C0,1.475-1.192,2.334-2.251,1.764-4.737.426-7.181-.994-9.6-2.457A1.433,1.433,0,0,1-10.069-4.5a1.506,1.506,0,0,1,2.061-.72Q-4.3-3.177-.673-.987C-.3-.763-.132-.2,0,0" fill="#2b2e34"/>
      </g>
      <g id="Grupo_214" data-name="Grupo 214" transform="translate(96.82 -43.116)">
        <path id="Caminho_3374" data-name="Caminho 3374" d="M0,0C-.04,1.469-1.268,2.293-2.322,1.721-4.774.391-7.183-1.019-9.578-2.45a1.526,1.526,0,0,1-.491-2.133,1.53,1.53,0,0,1,2.087-.65q3.66,2.026,7.246,4.184c.4.242.589.83.736,1.049" fill="#2b2e34"/>
      </g>
      <g id="Grupo_215" data-name="Grupo 215" transform="translate(16.971 -46.55)">
        <path id="Caminho_3375" data-name="Caminho 3375" d="M0,0A3.287,3.287,0,0,1-.829,1.048c-2.3,1.4-4.632,2.732-6.977,4.047a1.582,1.582,0,0,1-2.259-.618,1.568,1.568,0,0,1,.7-2.229C-7.108.914-4.843-.408-2.557-1.692-1.343-2.375-.008-1.642,0,0" fill="#2b2e34"/>
      </g>
      <g id="Grupo_216" data-name="Grupo 216" transform="translate(97.84 -69.527)">
        <path id="Caminho_3376" data-name="Caminho 3376" d="M0,0C1.311,0,2.622-.013,3.933,0a1.572,1.572,0,0,1,1.726,1.66A1.569,1.569,0,0,1,3.936,3.226q-3.933.022-7.867,0A1.568,1.568,0,0,1-5.655,1.565,1.569,1.569,0,0,1-3.933,0C-2.622-.013-1.311,0,0,0" fill="#2b2e34"/>
      </g>
    </g>
  </g>
</svg>
