<svg xmlns="http://www.w3.org/2000/svg" width="22.367" height="22.367" viewBox="0 0 22.367 22.367">
  <g id="Icon_feather-instagram" data-name="Icon feather-instagram" transform="translate(1.5 1.5)">
    <path id="Caminho_3288" data-name="Caminho 3288" d="M7.842,3h9.684a4.842,4.842,0,0,1,4.842,4.842v9.684a4.842,4.842,0,0,1-4.842,4.842H7.842A4.842,4.842,0,0,1,3,17.526V7.842A4.842,4.842,0,0,1,7.842,3Z" transform="translate(-3 -3)" fill="none" stroke="#b7b7b7" stroke-linecap="round" stroke-linejoin="round" stroke-width="3"/>
    <path id="Caminho_3289" data-name="Caminho 3289" d="M19.77,15.24a3.873,3.873,0,1,1-3.263-3.263A3.873,3.873,0,0,1,19.77,15.24Z" transform="translate(-6.213 -6.167)" fill="none" stroke="#b7b7b7" stroke-linecap="round" stroke-linejoin="round" stroke-width="3"/>
    <path id="Caminho_3290" data-name="Caminho 3290" d="M26.25,9.75h0" transform="translate(-11.24 -5.392)" fill="none" stroke="#b7b7b7" stroke-linecap="round" stroke-linejoin="round" stroke-width="3"/>
  </g>
</svg>
