<svg xmlns="http://www.w3.org/2000/svg" width="21.619" height="21.619" viewBox="0 0 21.619 21.619">
  <path id="Icon_simple-linkedin" data-name="Icon simple-linkedin" d="M18.419,18.423h-3.2V13.407c0-1.2-.024-2.736-1.668-2.736-1.669,0-1.924,1.3-1.924,2.647v5.1h-3.2V8.107H11.5V9.513h.041a3.374,3.374,0,0,1,3.036-1.666c3.244,0,3.844,2.135,3.844,4.914v5.662ZM4.808,6.7a1.859,1.859,0,1,1,1.859-1.86A1.857,1.857,0,0,1,4.808,6.7ZM6.413,18.423H3.2V8.107h3.21ZM20.02,0H1.6A1.576,1.576,0,0,0,0,1.557v18.5a1.576,1.576,0,0,0,1.6,1.557H20.018a1.582,1.582,0,0,0,1.6-1.557V1.557A1.582,1.582,0,0,0,20.018,0Z" fill="#b7b7b7"/>
</svg>
