<svg id="Grupo_3" data-name="Grupo 3" xmlns="http://www.w3.org/2000/svg" xmlns:xlink="http://www.w3.org/1999/xlink" width="91.557" height="45.015" viewBox="0 0 91.557 45.015">
  <defs>
    <clipPath id="clip-path">
      <rect id="Retângulo_2" data-name="Retângulo 2" width="91.557" height="45.015" fill="#486018"/>
    </clipPath>
  </defs>
  <g id="Grupo_1" data-name="Grupo 1" clip-path="url(#clip-path)">
    <path id="Caminho_3218" data-name="Caminho 3218" d="M21.19,35.4c3.663.96,5.711,4.214,5.711,8.232,0,4.8-2.917,8.571-8.033,8.571s-8.034-3.768-8.034-8.571a10.721,10.721,0,0,1,.274-2.426C7.229,44.047,4.642,47,3.751,49.821a16.281,16.281,0,0,0,15.117,9.473c8.8,0,16.381-6.462,16.381-15.663A15.069,15.069,0,0,0,29.83,31.91c-3.084,1.08-5.979,2.251-8.64,3.489" transform="translate(-2.486 -21.148)" fill="#486018"/>
    <path id="Caminho_3219" data-name="Caminho 3219" d="M0,35.97a16.042,16.042,0,0,0,.16,2.242c3.777-5.794,12.561-11.491,24.389-15.845a17.351,17.351,0,0,0-8.167-2.015C7.585,20.352,0,26.771,0,35.97" transform="translate(0 -13.488)" fill="#486018"/>
    <path id="Caminho_3220" data-name="Caminho 3220" d="M109.12,20.925V50.7h7.674V34.137l14,17.412q2.961-.724,5.791-1.567v-29.8h-7.676V36.83L115.041,19.549q-3.022.626-5.921,1.376" transform="translate(-72.317 -12.956)" fill="#486018"/>
    <path id="Caminho_3221" data-name="Caminho 3221" d="M230.036,83.5a78.776,78.776,0,0,1-13.184,6.362,17.886,17.886,0,0,0,6.84,1.26c8.078,0,11.58-4.039,11.58-9.651a11.179,11.179,0,0,0-.111-1.6,45.7,45.7,0,0,1-5.125,3.632" transform="translate(-143.715 -52.934)" fill="#486018"/>
    <path id="Caminho_3222" data-name="Caminho 3222" d="M199.606,87.738a13.178,13.178,0,0,0,2.734,2.679,88.947,88.947,0,0,0,9.126-3.814,7.768,7.768,0,0,1-5.937-3.308Z" transform="translate(-132.286 -55.202)" fill="#486018"/>
    <path id="Caminho_3223" data-name="Caminho 3223" d="M206.474,30.28c0,5.025,3.142,7.719,7.584,9.2l3.592,1.211c2.02.674,3.007,1.3,3.007,2.6,0,.046-.005.088-.007.131.444-.258.888-.519,1.317-.783a40.484,40.484,0,0,0,5.721-4.2c-1.161-2.027-3.38-3.6-7.12-4.842l-4.038-1.345c-1.483-.494-2.155-1.078-2.155-2.245,0-1.212.987-2.109,2.962-2.109a6.318,6.318,0,0,1,5.025,2.2l4.67-4.893c-1.8-2.108-4.759-4.039-10.145-4.039-5.43,0-10.412,3.1-10.412,9.112" transform="translate(-136.837 -14.029)" fill="#486018"/>
    <path id="Caminho_3224" data-name="Caminho 3224" d="M109.119.425a.425.425,0,0,1,.755-.267l3.3,4.1q-2.058.446-4.05.943Z" transform="translate(-72.317)" fill="#486018"/>
    <path id="Caminho_3225" data-name="Caminho 3225" d="M182.805,122.827a.425.425,0,0,1-.762.26l-3.185-3.965c1.332-.339,2.652-.7,3.946-1.07Z" transform="translate(-118.536 -78.237)" fill="#486018"/>
  </g>
</svg>
