<svg xmlns="http://www.w3.org/2000/svg" width="20.106" height="23.379" viewBox="0 0 20.106 23.379">
  <path id="Icon_zocial-appstore" data-name="Icon zocial-appstore" d="M2.814,10.226q-.024.421-.024.842a13.233,13.233,0,0,0,.468,3.367,14.817,14.817,0,0,0,1.94,4.3q2.081,3.179,4.021,3.2a4.84,4.84,0,0,0,1.824-.491,5.511,5.511,0,0,1,2.221-.491h.094a5.2,5.2,0,0,1,2.127.468,4.479,4.479,0,0,0,1.778.514,3.133,3.133,0,0,0,2.127-.959,14.616,14.616,0,0,0,1.986-2.431A23.653,23.653,0,0,0,22.9,15.72a5.143,5.143,0,0,1-1.987-1.333A4.79,4.79,0,0,1,19.787,12.4a5.357,5.357,0,0,1-.21-1.637V10.2a4.417,4.417,0,0,1,.782-2.139A5.218,5.218,0,0,1,22.2,6.415a6.555,6.555,0,0,0-2.081-1.753,5.1,5.1,0,0,0-2.408-.631,7.1,7.1,0,0,0-2.466.5,6.448,6.448,0,0,1-2,.5,7.073,7.073,0,0,1-2.116-.5,7.358,7.358,0,0,0-2.373-.5,5.2,5.2,0,0,0-2.677.783,6.649,6.649,0,0,0-3.261,5.412Zm9.7-6.032a3.569,3.569,0,0,1-.071-.7A4.724,4.724,0,0,1,13.685.477,5.358,5.358,0,0,1,15.31-.832a4.819,4.819,0,0,1,1.928-.608,5.26,5.26,0,0,1,.047.7,4.9,4.9,0,0,1-1.169,3.086A4.96,4.96,0,0,1,14.48,3.7a3.735,3.735,0,0,1-1.871.491Z" transform="translate(-2.79 1.439)" fill="#b7b7b7"/>
</svg>
