<svg xmlns="http://www.w3.org/2000/svg" xmlns:xlink="http://www.w3.org/1999/xlink" width="406.302" height="191.668" viewBox="0 0 406.302 191.668">
  <defs>
    <clipPath id="clip-path">
      <path id="Caminho_3365" data-name="Caminho 3365" d="M0,50.131H406.3V-141.538H0Z" transform="translate(0 141.538)" fill="none"/>
    </clipPath>
  </defs>
  <g id="Grupo_199" data-name="Grupo 199" transform="translate(0 141.537)">
    <g id="Grupo_198" data-name="Grupo 198" transform="translate(0 -141.538)" clip-path="url(#clip-path)">
      <g id="Grupo_175" data-name="Grupo 175" transform="translate(117.217 94.52)">
        <path id="Caminho_3342" data-name="Caminho 3342" d="M10.248,6.5c.949-4.753,2.293-9.11,2.589-13.534.423-6.293,4.346-8.967,9.787-10.4a24.577,24.577,0,0,1,17.6,1.8,7.963,7.963,0,0,1,4.76,6.492,157.846,157.846,0,0,0,3.172,16.4c.52-2.753,1.059-5.5,1.552-8.258.532-2.966,1.063-5.931,1.517-8.909a6.982,6.982,0,0,1,3.887-5.265c8.275-4.386,16.5-4.258,24.576.553a6.206,6.206,0,0,1,2.876,4.492q1.33,7.024,2.706,14.039c.145.746.353,1.48.581,2.416.938-.681.825-1.593.972-2.321.865-4.259,1.844-8.508,2.42-12.807a8.669,8.669,0,0,1,5.715-7.258,24.154,24.154,0,0,1,22.725,1.245,5.619,5.619,0,0,1,2.952,3.942c1.445,7.787,2.974,15.56,4.235,23.373.662,4.1-1.9,7-5.533,6.832-.984-.045-1.942-.156-2.058-1.37-.1-1.074.616-1.486,1.574-1.62,2.328-.325,2.958-1.82,2.611-3.8-1.291-7.386-2.637-14.762-3.98-22.138a3.686,3.686,0,0,0-2.041-2.58c-6.92-3.788-13.81-3.827-20.687.131a3.418,3.418,0,0,0-1.789,2.469C91.394-1.461,89.82,6.659,88.182,14.766c-.283,1.4.028,3.557-2.2,3.515-2.081-.039-1.727-2.153-1.993-3.471C82.428,7.118,80.835-.574,79.553-8.315c-.455-2.744-2.141-3.956-4.351-4.924a20.022,20.022,0,0,0-17.676.573,5.12,5.12,0,0,0-3.043,4.015c-1.526,8.837-3.136,17.661-4.7,26.493-.2,1.138-.328,2.428-1.786,2.5-1.662.085-1.823-1.38-2.016-2.52Q43.725,4.564,41.576-8.714a4.434,4.434,0,0,0-2.324-3.548c-6.872-3.692-13.695-3.717-20.505.179a3.6,3.6,0,0,0-1.87,2.649q-2.342,12.182-4.771,24.35c-.271,1.347-.031,3.353-2.121,3.379-2.025.024-1.752-1.957-2.007-3.215C6.413,7.314,4.8-.446,3.509-8.255,3.073-10.9,1.556-12.159-.6-13.127a19.975,19.975,0,0,0-18.624.853,4.361,4.361,0,0,0-2.329,3.327c-1.208,6.973-2.469,13.937-3.728,20.9-.287,1.588-.294,3.052,1.12,4.229a1.478,1.478,0,0,1,.223,2.386c-.83.854-1.676.5-2.5-.08-2.283-1.6-2.781-3.869-2.35-6.352,1.3-7.456,2.708-14.892,4.033-22.343a6.794,6.794,0,0,1,3.716-4.908c8.334-4.467,16.619-4.348,24.756.547a6.232,6.232,0,0,1,2.813,4.531Q7.845-3.01,9.238,4a3.99,3.99,0,0,0,1.01,2.5" transform="translate(28.935 18.356)" fill="#2b2e34"/>
      </g>
      <g id="Grupo_176" data-name="Grupo 176" transform="translate(122.389 106.422)">
        <path id="Caminho_3343" data-name="Caminho 3343" d="M1.6,12.9c0-3.432-.064-6.866.023-10.295C1.667.873.981.241-.782.271c-3.866.065-4.458.8-3.012-3.961C-2.242-8.792-.868-13.945.627-19.064a22.576,22.576,0,0,0,.993-7.248c-.091-2.378-.042-4.763-.008-7.143C1.629-34.7,1.5-36.349,3.26-36.372,5.2-36.4,4.942-34.66,5.034-33.359a51.691,51.691,0,0,1-3,21.681C1.291-9.639.894-7.48.224-5.412c-.593,1.835.11,2.4,1.942,2.379q8.314-.077,16.629,0c1.574.014,2.034-.418,1.572-1.981-1.551-5.249-3.109-10.5-4.425-15.807-1.143-4.61-.412-9.336-.393-14.012a1.523,1.523,0,0,1,1.66-1.594c1.04.045,1.445.821,1.572,1.717a7.09,7.09,0,0,1,.073,1.675c-.745,7.765,1.029,15.155,3.421,22.471.937,2.867,1.66,5.8,2.542,8.686.456,1.5.173,2.23-1.628,2.187-4.745-.116-4.313-.28-4.321,4.4-.012,6.094-.061,12.188.028,18.28.028,1.911-.636,2.614-2.618,2.563-4.1-.106-8.208-.087-12.31-.008-1.779.033-2.435-.628-2.393-2.347.085-3.429.026-6.863.023-10.295m6.9-1.51c0-3.074-.011-6.149.005-9.223C8.517,1.005,8.11.312,6.777.311S5.038,1,5.039,2.166q.018,9.013,0,18.027c0,1.093.236,1.926,1.625,1.966,1.453.043,1.858-.715,1.848-1.964-.023-2.935-.007-5.869-.009-8.8m6.917-.13c0-3-.009-6.009,0-9.013.005-1.113-.278-1.905-1.652-1.938-1.467-.035-1.83.749-1.825,1.984q.026,8.909,0,17.818c0,1.188.256,2.058,1.762,2.048,1.532-.009,1.72-.934,1.714-2.095-.011-2.935,0-5.869-.005-8.8" transform="translate(4.516 36.426)" fill="#2b2e34"/>
      </g>
      <g id="Grupo_177" data-name="Grupo 177" transform="translate(198.448 106.422)">
        <path id="Caminho_3344" data-name="Caminho 3344" d="M1.6,12.9c0-3.432-.064-6.866.023-10.295C1.667.872.979.243-.784.272c-3.865.065-4.457.795-3.01-3.962C-2.242-8.793-.868-13.945.627-19.064a22.5,22.5,0,0,0,.991-7.248c-.089-2.309-.047-4.623-.005-6.933.023-1.3-.233-3.063,1.649-3.121,1.928-.06,1.679,1.708,1.771,3.008a51.716,51.716,0,0,1-3,21.682C1.291-9.638.894-7.479.224-5.411c-.593,1.835.11,2.4,1.942,2.379q8.314-.077,16.629,0c1.575.015,2.033-.418,1.572-1.98-1.551-5.25-3.109-10.5-4.425-15.809-1.143-4.608-.412-9.336-.393-14.01a1.522,1.522,0,0,1,1.66-1.594c1.04.045,1.445.821,1.574,1.717a7.162,7.162,0,0,1,.072,1.675c-.746,7.765,1.031,15.155,3.421,22.471.937,2.867,1.66,5.8,2.542,8.687.458,1.5.171,2.229-1.628,2.184C18.444.2,18.878.033,18.868,4.709c-.012,6.094-.061,12.188.028,18.28.028,1.912-.638,2.614-2.619,2.562-4.1-.1-8.208-.085-12.31-.008-1.781.034-2.433-.628-2.391-2.345.085-3.43.026-6.864.023-10.3m6.91-1.479c0-3-.009-6.009,0-9.013C8.519,1.25,8.341.324,6.808.31,5.31.3,5.031,1.143,5.034,2.346q.024,8.907,0,17.817c0,1.223.339,2.03,1.815,2,1.374-.03,1.664-.821,1.66-1.934-.012-2.935,0-5.869,0-8.8m6.913-.065c0-3-.014-6.01.007-9.013.008-1.2-.272-2.054-1.774-2.033-1.347.019-1.7.745-1.7,1.889q.016,9.015,0,18.027c0,1.114.287,1.9,1.66,1.932,1.477.033,1.821-.777,1.813-2-.02-2.935-.007-5.869-.005-8.8" transform="translate(4.516 36.426)" fill="#2b2e34"/>
      </g>
      <g id="Grupo_178" data-name="Grupo 178" transform="translate(166.506 106.414)">
        <path id="Caminho_3345" data-name="Caminho 3345" d="M4.523,8.182q0,13.975,0,27.949c0,2.611-.114,2.712-2.817,2.721-3.961.012-7.922-.053-11.88.027-1.789.037-2.6-.466-2.592-2.367q.075-28.371.035-56.74a6.945,6.945,0,0,1,.057-1.048c.15-.972.54-1.847,1.708-1.806s1.519.94,1.609,1.909c.07.765.054,1.54.054,2.31q0,25.742.019,51.486c0,.925-.378,2.038.722,2.676,1.467.85,2.725-.115,2.73-2.138.019-7.845.008-15.691.009-23.536,0-1.892.018-3.784,0-5.674-.012-1.181.211-2.075,1.74-2.066,1.552.008,1.7.953,1.7,2.107q-.008,14.5.005,29c0,1.192-.168,2.515,1.729,2.5,1.013-.008,1.675-.36,1.708-1.437.022-.7.035-1.4.035-2.1q0-25.533.008-51.066a14.749,14.749,0,0,1,.2-2.712A1.477,1.477,0,0,1,2.8-23.1a1.478,1.478,0,0,1,1.522,1.251,12.334,12.334,0,0,1,.2,2.5q.02,13.764.008,27.529" transform="translate(12.77 23.1)" fill="#2b2e34"/>
      </g>
      <g id="Grupo_179" data-name="Grupo 179" transform="translate(242.512 106.512)">
        <path id="Caminho_3346" data-name="Caminho 3346" d="M.021,8.117c0-8.966-.035-17.933.033-26.9.012-1.532-.776-4.045,1.639-4.1,2.508-.054,1.725,2.485,1.731,4C3.477-2,3.457,14.883,3.458,31.766c0,.63.016,1.261.005,1.89-.02,1.124.3,1.9,1.676,1.924,1.5.026,1.8-.815,1.8-2.025-.016-3.223,0-6.445,0-9.668q0-9.77.005-19.544c0-1.129-.126-2.328,1.63-2.373,1.878-.049,1.8,1.192,1.8,2.423q0,13.975,0,27.949a17.47,17.47,0,0,0,.081,2.1c.123,1.012.917,1.135,1.762,1.123.788-.011,1.458-.238,1.546-1.121a23.009,23.009,0,0,0,.081-2.308q.006-25.742.026-51.486c0-1.429-.528-3.631,1.794-3.564,2.077.06,1.6,2.165,1.6,3.552q.043,27.634.018,55.268c0,3.008-.027,3.028-3.148,3.033-3.816.005-7.635-.088-11.447.035-2.111.069-2.718-.727-2.7-2.7C.065,26.89.021,17.5.021,8.117" transform="translate(0.06 22.916)" fill="#2b2e34"/>
      </g>
      <g id="Grupo_180" data-name="Grupo 180" transform="translate(128.524 74.31)">
        <path id="Caminho_3347" data-name="Caminho 3347" d="M2.257,4.363a8.394,8.394,0,0,1-8.63-8.369c0-4.344,4.1-8.3,8.609-8.312a8.76,8.76,0,0,1,8.626,8.51,8.385,8.385,0,0,1-8.6,8.171M2.192,1.011A4.943,4.943,0,0,0,7.41-3.761a5.394,5.394,0,0,0-5.346-5.25A5.417,5.417,0,0,0-2.931-3.857,4.94,4.94,0,0,0,2.192,1.011" transform="translate(6.373 12.318)" fill="#2b2e34"/>
      </g>
      <g id="Grupo_181" data-name="Grupo 181" transform="translate(166.552 74.309)">
        <path id="Caminho_3348" data-name="Caminho 3348" d="M2.237,4.363A8.391,8.391,0,0,1-6.316-4.082c.045-4.355,4.206-8.3,8.687-8.236a8.753,8.753,0,0,1,8.548,8.586,8.393,8.393,0,0,1-8.682,8.1M2.3,1.011A4.944,4.944,0,0,0,7.47-3.805a5.4,5.4,0,0,0-5.4-5.205,5.42,5.42,0,0,0-4.948,5.2A4.942,4.942,0,0,0,2.3,1.011" transform="translate(6.316 12.319)" fill="#2b2e34"/>
      </g>
      <g id="Grupo_182" data-name="Grupo 182" transform="translate(204.581 74.308)">
        <path id="Caminho_3349" data-name="Caminho 3349" d="M2.235,4.363A8.391,8.391,0,0,1-6.311-4.088c.047-4.354,4.22-8.3,8.694-8.229a8.754,8.754,0,0,1,8.541,8.592A8.4,8.4,0,0,1,2.235,4.363m.173-3.352A4.929,4.929,0,0,0,7.473-3.911a5.39,5.39,0,0,0-5.287-5.1,5.376,5.376,0,0,0-5.05,5.3A4.947,4.947,0,0,0,2.409,1.012" transform="translate(6.311 12.319)" fill="#2b2e34"/>
      </g>
      <g id="Grupo_183" data-name="Grupo 183" transform="translate(242.611 74.309)">
        <path id="Caminho_3350" data-name="Caminho 3350" d="M2.24,4.363A8.391,8.391,0,0,1-6.325-4.07c.037-4.355,4.187-8.3,8.675-8.248a8.756,8.756,0,0,1,8.56,8.575A8.384,8.384,0,0,1,2.24,4.363m.016-3.352a4.94,4.94,0,0,0,5.2-4.787A5.4,5.4,0,0,0,2.1-9.012,5.421,5.421,0,0,0-2.883-3.841,4.941,4.941,0,0,0,2.257,1.011" transform="translate(6.325 12.318)" fill="#2b2e34"/>
      </g>
      <g id="Grupo_184" data-name="Grupo 184" transform="translate(157.701 5.093)">
        <path id="Caminho_3351" data-name="Caminho 3351" d="M21.495,16.64A2.6,2.6,0,0,1,20,15.631c-3.054-2.951-6.12-5.892-9.122-8.893a3.841,3.841,0,0,0-2.974-1.2c-9.245.037-18.49.023-27.735.018-3.943,0-5.62-1.645-5.628-5.491,0-1.9-.026-3.807,0-5.711.016-.967-.4-1.374-1.395-1.366q-4.623.039-9.245,0a2.753,2.753,0,0,0-2.022.989q-4.656,4.554-9.341,9.084c-.366.353-.643.844-1.243.952-.408-.4-.229-.9-.232-1.351-.02-2.57-.005-5.14-.012-7.709,0-1.9-.057-1.949-1.949-1.958-1.614-.008-3.228.019-4.843-.011-3.07-.054-4.929-1.848-4.937-4.862q-.035-14.991,0-29.982c.008-3.2,1.938-5.1,5.205-5.108q24.213-.033,48.427,0a4.73,4.73,0,0,1,5.044,4.958c.02,1.762,0,3.522.005,5.283,0,2.312,0,2.314,2.317,2.316q13.575,0,27.149,0c3.92,0,5.757,1.774,5.758,5.562q0,14.491,0,28.982c0,3.75-1.708,5.413-5.547,5.426-1.369,0-2.738,0-4.109,0C21.534,5.569,21.5,5.6,21.5,7.534c-.005,2.99,0,5.981,0,9.106M3.942-32.14q-11.733,0-23.465,0c-2.806,0-3.6.768-3.6,3.452q0,14.27,0,28.537c0,2.818.634,3.433,3.533,3.434,9.483,0,18.968.02,28.451-.022a4.07,4.07,0,0,1,3.23,1.278C14,6.518,16.01,8.4,17.992,10.306c.259.248.488.737.924.542.414-.184.233-.68.237-1.039.019-1.57.076-3.143-.011-4.709-.074-1.337.382-1.9,1.823-1.834,2.1.091,4.2.024,6.305.022C30.292,3.285,30.9,2.7,30.9-.19q0-14.2,0-28.395c0-2.806-.757-3.551-3.641-3.552q-11.658-.01-23.318,0M-31.225-44.7q-11.885,0-23.771,0c-2.4,0-3.342.841-3.345,2.981q-.016,14.776,0,29.552c0,2.09.8,2.86,2.914,2.883,2.4.024,4.8.046,7.191-.008,1.188-.027,1.69.376,1.644,1.568-.065,1.712-.022,3.426-.005,5.139,0,.311-.142.745.26.886.381.134.59-.259.822-.481,2.115-2.046,4.24-4.086,6.324-6.163a3.029,3.029,0,0,1,2.337-.945c3.131.034,6.26.016,9.391.009,1.939,0,2-.058,2-1.905.005-5.9-.005-11.8.005-17.7.005-3.732,1.84-5.513,5.679-5.522,4.451-.011,8.9,0,13.354,0,2.087,0,2.092-.011,2.1-2.1q0-2.285,0-4.569c0-2.9-.731-3.622-3.717-3.625q-11.593-.006-23.185,0" transform="translate(60.688 46.98)" fill="#2b2e34"/>
      </g>
      <g id="Grupo_185" data-name="Grupo 185" transform="translate(0 0)">
        <path id="Caminho_3352" data-name="Caminho 3352" d="M15.351,0q25.5,0,50.993,0c5.715,0,7.835,2.062,7.837,7.615q.006,33,0,66.008c0,5.4-2.16,7.485-7.742,7.494-4.034.008-8.067,0-12.1,0-3.509,0-3.513,0-3.515,3.323,0,5.6.012,11.211-.018,16.816,0,.726.386,1.778-.488,2.085-.822.29-1.3-.708-1.834-1.232C42.026,95.72,35.55,89.34,29.173,82.867a6.781,6.781,0,0,0-5.3-2.169c-19.951.068-39.9.042-59.852.038-5.5,0-7.363-1.824-7.364-7.208q-.006-33.215,0-66.428c0-4.832,2.29-7.088,7.265-7.092Q-10.36-.017,15.351,0m.2,3.343q-25.491,0-50.98,0c-3.891,0-4.478.59-4.48,4.411q0,26.585,0,53.171c0,4.413-.023,8.827.015,13.24.022,2.561.854,3.38,3.467,3.552.788.053,1.583.028,2.375.028,19.8,0,39.6.03,59.4-.041a6.985,6.985,0,0,1,5.512,2.173c4.725,4.81,9.609,9.473,14.449,14.176.486.471.922,1.395,1.645,1.148.795-.269.4-1.238.409-1.892.033-4.343.091-8.687-.015-13.029-.047-1.941.695-2.572,2.647-2.539,5.471.089,10.943.039,16.417.026,3.656-.009,4.325-.651,4.325-4.13q.006-32.89,0-65.781c0-3.887-.646-4.514-4.641-4.515q-25.275-.006-50.548,0" transform="translate(43.342 0.002)" fill="#2b2e34"/>
      </g>
      <g id="Grupo_186" data-name="Grupo 186" transform="translate(259.056 68.994)">
        <path id="Caminho_3353" data-name="Caminho 3353" d="M38.4,30.007c-1.972-1.588-3.876-3.105-5.762-4.644A71.621,71.621,0,0,0,17.168,16.22C8.965,12.415.285,11.128-8.565,11a62.708,62.708,0,0,0-22.7,3.413c-5.035,1.861-10.089,3.969-14.4,7.2-9.539,7.157-20.47,11.1-32.029,13.746a109.22,109.22,0,0,1-28.236,2.513c-1.231-.043-2.531.116-2.49-1.712.041-1.861,1.429-1.625,2.6-1.587A105.058,105.058,0,0,0-77.8,32.056c10.533-2.517,20.6-6.015,29.324-12.58C-39.6,12.79-29.331,9.586-18.293,8.3A100.255,100.255,0,0,1-6.334,7.939c1.765.005,2.378-.619,2.368-2.32C-4.019-3.6-4-12.823-3.982-22.045c0-1.219-.213-2.21-1.671-2.48-8.4-1.548-13.413-11.745-13.784-18.193-.371-6.472,1.282-12.529,3.563-18.459,2.672-6.944,5.384-13.891,9.7-20.091,3.189-4.574,4.745-4.654,7.766.056,6.277,9.787,10.95,20.3,12.989,31.674,1.467,8.179-.57,15.718-6.91,21.754a13.377,13.377,0,0,1-6.2,3.127A2.321,2.321,0,0,0-.6-22.038Q-.541-8-.606,6.044C-.614,7.579-.1,8.279,1.527,8.478a71.9,71.9,0,0,1,20.047,5.684c1.522.665,1.865.206,1.848-1.227-.046-3.952-.054-7.9,0-11.856.02-1.4-.563-2.038-1.923-2.536a13.414,13.414,0,0,1-8.869-15.675A60.449,60.449,0,0,1,22.1-39.04c2.436-3.479,3.586-3.5,6-.022a58.74,58.74,0,0,1,9.577,22.287,13.357,13.357,0,0,1-8.9,15.291,2.48,2.48,0,0,0-1.988,2.707c.058,4.714.047,9.429,0,14.144a3,3,0,0,0,1.5,2.745,81.637,81.637,0,0,1,8.794,6.6c1.865,1.716,2.1,2.374,1.315,5.292M-.575-48.38h.007c0,2.287-.02,4.576.014,6.864.009.661-.318,1.563.416,1.911.8.379,1.2-.536,1.685-.976,1.094-.993,2.14-2.038,3.186-3.081.7-.695,1.315-1.263,2.3-.3.956.943.982,1.723,0,2.645C5.339-39.724,3.819-37.936,2-36.5a6.673,6.673,0,0,0-2.6,6.4c.2,2.183,1.067,2.758,2.956,1.663,6.847-3.969,9.856-10.158,9.183-17.535C10.44-58.079,5.06-68.843-1.014-79.276c-.894-1.537-1.628-1.335-2.595.024-2.375,3.341-3.876,7.108-5.558,10.766-3.289,7.156-6.529,14.4-6.91,22.375-.368,7.7,2.351,14,9.674,17.848,1.724.906,2.393.615,2.415-1.2.041-3.189-.012-6.38.02-9.569a3.55,3.55,0,0,0-1.269-2.742c-1.739-1.644-3.414-3.352-5.161-4.985-.845-.789-1.179-1.4-.184-2.4,1.052-1.052,1.759-.8,2.622.139.806.879,1.7,1.683,2.568,2.505.293.276.571.731,1.048.548s.358-.708.36-1.1c.016-2.913.026-5.824.011-8.737-.007-1.193.278-2.034,1.773-2,1.383.031,1.633.838,1.628,1.93-.009,2.5,0,4.993,0,7.49M15.709-14.353a6.87,6.87,0,0,0,.007,1.014,10.128,10.128,0,0,0,6.3,8.512c3.265,1.449,6.21.547,8.758-1.513,3.533-2.856,4.442-6.7,3.445-10.917a62.886,62.886,0,0,0-7.669-18.2c-1.291-2.123-1.6-2.1-2.882-.007a76.135,76.135,0,0,0-7.2,16.391,12.224,12.224,0,0,0-.758,4.719" transform="translate(108.421 84.722)" fill="#2b2e34"/>
      </g>
      <g id="Grupo_187" data-name="Grupo 187" transform="translate(302.123 144.928)">
        <path id="Caminho_3354" data-name="Caminho 3354" d="M6.205,0A56.188,56.188,0,0,1,40.221,11.716c.416.313,1.227.542.968,1.189-.268.674-1.01.123-1.519.219-3.281.613-5.451-1.6-7.914-2.966Q10.336-1.7-12.673,6.8a5.5,5.5,0,0,1-1.609.534c-1.346.037-2.8-.459-3.205-1.59-.278-.779,1.273-1.029,2.072-1.357A54.676,54.676,0,0,1,6.205,0" transform="translate(17.52 0.003)" fill="#2b2e34"/>
      </g>
      <g id="Grupo_188" data-name="Grupo 188" transform="translate(259.063 146.273)">
        <path id="Caminho_3355" data-name="Caminho 3355" d="M1.636,0c14.176.379,27.716,3.219,40.05,10.285a49.156,49.156,0,0,1,13.1,10.563c.933,1.089.47,1.723-.324,2.432a1.441,1.441,0,0,1-2.364-.112C44.765,14.544,34.971,9.8,24.216,6.688A86.871,86.871,0,0,0-1.307,3.265c-.642.009-1.284-.007-1.924-.027-.983-.031-1.369-.589-1.387-1.486C-4.635.826-4.424.041-3.283.014-1.644-.027,0,0,1.636,0" transform="translate(4.619 0.008)" fill="#2b2e34"/>
      </g>
      <g id="Grupo_189" data-name="Grupo 189" transform="translate(289.872 81.316)">
        <path id="Caminho_3356" data-name="Caminho 3356" d="M2.673,5.122A9.93,9.93,0,0,1-7.546-4.7,9.935,9.935,0,0,1,2.742-14.46,9.931,9.931,0,0,1,12.958-4.635,9.932,9.932,0,0,1,2.673,5.122m.049-3.308c3.828,0,6.766-2.681,6.825-6.228A6.523,6.523,0,0,0,2.8-11.152c-4.018-.019-6.887,2.7-6.932,6.56C-4.177-.957-1.208,1.816,2.721,1.813" transform="translate(7.546 14.46)" fill="#2b2e34"/>
      </g>
      <g id="Grupo_190" data-name="Grupo 190" transform="translate(308.623 74.912)">
        <path id="Caminho_3357" data-name="Caminho 3357" d="M.535,2.024A3.381,3.381,0,0,1-1.255.518,1.078,1.078,0,0,1-1.138-.995c1.5-1.476,2.993-2.958,4.53-4.4.7-.655,1.307-.194,1.828.336.49.5,1.173,1.04.542,1.765C4.3-1.606,2.746.011,1.213,1.64a2.586,2.586,0,0,1-.678.383" transform="translate(1.51 5.713)" fill="#2b2e34"/>
      </g>
      <g id="Grupo_191" data-name="Grupo 191" transform="translate(313.846 89.249)">
        <path id="Caminho_3358" data-name="Caminho 3358" d="M1.1.861C.313.862-.471.848-1.254.867-2.466.895-3.121.431-3.1-.841c.023-1.17.643-1.591,1.751-1.584,1.64.009,3.278.016,4.917-.005C4.782-2.447,5.439-2,5.414-.722,5.393.448,4.768.873,3.662.861c-.854-.009-1.71,0-2.565,0" transform="translate(3.097 2.431)" fill="#2b2e34"/>
      </g>
      <g id="Grupo_192" data-name="Grupo 192" transform="translate(308.7 99.186)">
        <path id="Caminho_3359" data-name="Caminho 3359" d="M1.945,1.431A3.706,3.706,0,0,1,.413,3.369c-.7.548-1.179-.1-1.6-.532C-2.493,1.489-3.749.092-5.059-1.257a1.044,1.044,0,0,1,.1-1.758c.547-.452,1.052-1.5,1.886-.779C-1.386-2.334.137-.7,1.713.879a1.607,1.607,0,0,1,.232.553" transform="translate(5.491 4.041)" fill="#2b2e34"/>
      </g>
      <g id="Grupo_193" data-name="Grupo 193" transform="translate(298.442 104.632)">
        <path id="Caminho_3360" data-name="Caminho 3360" d="M0,1C0,.244,0-.511,0-1.268c0-1.14.639-1.579,1.755-1.557,1.033.02,1.6.474,1.6,1.5.008,1.649.011,3.3,0,4.951-.011,1.036-.622,1.45-1.639,1.453C.723,5.077.046,4.745.018,3.682c-.023-.894,0-1.788,0-2.681H0" transform="translate(0 2.827)" fill="#2b2e34"/>
      </g>
      <g id="Grupo_194" data-name="Grupo 194" transform="translate(284.226 99.216)">
        <path id="Caminho_3361" data-name="Caminho 3361" d="M1.93.533a7.776,7.776,0,0,1-.565.772C.232,2.543-.92,3.764-2.059,5c-.776.838-1.463,1.444-2.605.316-1.049-1.035-1.052-1.783.028-2.745C-3.378,1.451-2.218.229-1.008-.943c.412-.4.871-.826,1.469-.359A3.273,3.273,0,0,1,1.93.533" transform="translate(5.449 1.506)" fill="#2b2e34"/>
      </g>
      <g id="Grupo_195" data-name="Grupo 195" transform="translate(277.892 89.261)">
        <path id="Caminho_3362" data-name="Caminho 3362" d="M1.094.856c-.854,0-1.71,0-2.565,0-1.181,0-1.64-.6-1.618-1.7.019-1.014.475-1.56,1.54-1.564,1.782-.005,3.563,0,5.345-.007,1.179,0,1.64.6,1.618,1.7C5.394.3,4.939.846,3.873.852c-.926,0-1.853,0-2.779,0" transform="translate(3.09 2.416)" fill="#2b2e34"/>
      </g>
      <g id="Grupo_196" data-name="Grupo 196" transform="translate(284.124 74.942)">
        <path id="Caminho_3363" data-name="Caminho 3363" d="M.442,0A1.533,1.533,0,0,1,1.684.562C2.995,1.829,4.277,3.123,5.6,4.373,6.826,5.523,6,6.316,5.179,7.156c-.991,1.018-1.693.307-2.244-.429A35.677,35.677,0,0,0-.622,2.879c-.456-.455-.907-.948-.409-1.625A3.282,3.282,0,0,1,.442,0" transform="translate(1.249 0.001)" fill="#2b2e34"/>
      </g>
      <g id="Grupo_197" data-name="Grupo 197" transform="translate(298.435 68.874)">
        <path id="Caminho_3364" data-name="Caminho 3364" d="M.883,1.073c0,.831-.007,1.663,0,2.493C.9,4.66.413,5.232-.776,5.237c-1.156,0-1.723-.488-1.717-1.613.009-1.732,0-3.464.015-5.195.007-1.052.615-1.457,1.643-1.46,1,0,1.675.328,1.7,1.4.019.9,0,1.8,0,2.7Z" transform="translate(2.493 3.03)" fill="#2b2e34"/>
      </g>
    </g>
  </g>
</svg>
