<svg xmlns="http://www.w3.org/2000/svg" xmlns:xlink="http://www.w3.org/1999/xlink" width="449.154" height="148.201" viewBox="0 0 449.154 148.201">
  <defs>
    <clipPath id="clip-path">
      <path id="Caminho_3341" data-name="Caminho 3341" d="M0,32.057H449.154v-148.2H0Z" transform="translate(0 116.145)" fill="none"/>
    </clipPath>
  </defs>
  <g id="Grupo_174" data-name="Grupo 174" transform="translate(0 116.145)">
    <g id="Grupo_173" data-name="Grupo 173" transform="translate(0 -116.145)" clip-path="url(#clip-path)">
      <g id="Grupo_164" data-name="Grupo 164" transform="translate(166.5 -0.001)">
        <path id="Caminho_3332" data-name="Caminho 3332" d="M14.09,0c19.477.3,35.9,7.238,49.274,21.165,9.788,10.2,14.928,22.274,16.476,36.013a60.5,60.5,0,0,1-4.933,31.11,3.713,3.713,0,0,0,.374,4.193c4.93,6.846,4.157,16.106-2.062,23.379a69.006,69.006,0,0,1-9.635,9.224c-.99.783-1.652.819-2.441-.1a7.862,7.862,0,0,0-.957-.931c-1.645-1.353-2.784-4.019-4.825-3.961-2,.057-3.2,2.631-4.8,4.045-1.058.934-2.024,1.965-3.043,2.94-.938.9-1.964,1.924-3.236.63-1.159-1.178-.188-2.142.684-3,2.172-2.132,4.326-4.285,6.55-6.363,1.034-.967,1.117-1.724.042-2.731-2.493-2.336-4.951-4.711-7.334-7.152-1.12-1.146-1.928-.993-2.969.074-2.019,2.071-4.121,4.065-6.212,6.07-.957.917-2,2.191-3.387.789-1.267-1.28-.065-2.261.832-3.147,2.059-2.034,4.1-4.093,6.233-6.048,1.192-1.088,1.326-1.934.047-3.051-1.508-1.319-2.863-2.806-4.331-4.171-.827-.768-.887-1.406-.032-2.2,3.643-3.384,6.926-7.137,10.921-10.16,6.933-5.247,17.747-5.256,24.33.074,1.349,1.092,1.763.759,2.322-.606a57.9,57.9,0,0,0,4.312-28.158c-1.036-10.29-4.143-19.875-10.4-28.193C54.843,15.061,40.215,5.937,21.342,3.972,4.656,2.234-10.5,6.3-23.762,16.205c-13.606,10.166-21.3,23.857-23.255,40.443-1.955,16.616,2.766,31.441,13.417,44.5a59.217,59.217,0,0,0,13.852,12.139c8.841,5.739,20.31.818,21.818-9.427C2.8,98.935,3.29,93.98,3.924,89.043a2.91,2.91,0,0,0-2.077-3.549c-13.732-5.779-19.509-25.843-7.3-37.461A29.5,29.5,0,0,1-.4,44.016,122.736,122.736,0,0,0,19.67,28.8c1.792-1.663,3.374-3.538,5.1-5.271.758-.762,1.592-1.174,2.356.089,5.352,8.857,10.606,17.773,12.3,28.123,1.851,11.3-.754,21.6-9.037,29.795A22.894,22.894,0,0,1,9.95,87.978C8.4,87.727,7.634,87.861,7.46,89.66c-.445,4.586-1.21,9.144-1.669,13.73a17.533,17.533,0,0,1-26.815,13.2,61.071,61.071,0,0,1-26.643-33.25A58.508,58.508,0,0,1-51.05,63.722c.1-15.089,4.768-28.664,14.661-40.38C-25.04,9.9-10.309,2.516,7.333.394A58.879,58.879,0,0,1,14.09,0m-.642,84.859c6.548-.533,12.385-2.727,16.411-7.934A30.273,30.273,0,0,0,35.738,51.8c-1.427-7.507-4.7-14.322-8.482-20.939-1.527-2.673-1.808-2.786-3.97-.644A115.42,115.42,0,0,1,1.192,47.125a19.33,19.33,0,0,0-9.129,21.2c1.442,5.97,4.663,10.722,10.4,13.644,1.547.787,2.243.528,2.594-1.224A89.145,89.145,0,0,1,7.248,71.78,51.491,51.491,0,0,1,16.156,54.4c.738-.912,1.65-1.954,3.014-1.008,1.4.972.637,2.054-.1,3.027-5.307,6.952-8.323,14.845-10.172,23.24-1.02,4.633-.646,5.142,4.331,5.2h.225m61.364,18.524c.014-5.461-1.432-8.345-5.923-12.676a16.78,16.78,0,0,0-22.315-.487c-2.331,2.067-4.472,4.336-6.741,6.472-.93.875-1.1,1.6-.1,2.57q10.63,10.294,21.2,20.646a1.609,1.609,0,0,0,2.495.107A71.789,71.789,0,0,0,69.986,114a15.39,15.39,0,0,0,4.827-10.618" transform="translate(51.051)" fill="#2b2e34"/>
      </g>
      <g id="Grupo_165" data-name="Grupo 165" transform="translate(328.903 27.611)">
        <path id="Caminho_3333" data-name="Caminho 3333" d="M12.333,9.358c-1.845-.085-3.7-.115-5.533-.282A3.168,3.168,0,0,0,4.47,9.8,20.822,20.822,0,0,0-3.9,24.763c-.137,1.211-.071,2.62-1.674,2.8-1.8.208-1.951-1.331-2.3-2.547-.188-.648-.338-1.312-.587-1.938-1.456-3.67-2.447-4.31-6.477-4.345a34.271,34.271,0,0,1-14.78-3.051A24,24,0,0,1-43.48-1.625,52.256,52.256,0,0,1-44.637-15.03c.056-1.374.419-2.412,1.984-2.516,7.781-.523,15.458-.241,22.423,3.723C-13-9.711-10.163-2.977-9.062,4.664a26.9,26.9,0,0,1,.11,9.4,3.451,3.451,0,0,0,.958,2.9c1.395,1.753,1.628,1.8,2.5-.2a27.938,27.938,0,0,1,4.005-6.284,3.043,3.043,0,0,1,.746-.849C3.774,7.19,3.6,2.9,3.937-1.255A43.007,43.007,0,0,1,8.662-18.283C12.889-26.2,19.986-30.3,28.577-32.306a63.6,63.6,0,0,1,16.739-1.555c1.834.064,3.21.6,3.29,2.636.406,10.286-.767,20.272-6.867,29.051-5,7.2-12.631,9.959-21.11,10.994a50.773,50.773,0,0,1-8.3.538m-4.821-7c.758.047,1.04-.48,1.344-.864a66.552,66.552,0,0,1,7.354-7.448,36.563,36.563,0,0,1,8.512-6.126c.907-.447,1.846-.555,2.451.4a1.746,1.746,0,0,1-.637,2.544c-.371.268-.757.517-1.145.76A66.5,66.5,0,0,0,11.469,4.005c-.3.336-.755.674-.607,1.142.2.632.864.507,1.382.536A42.033,42.033,0,0,0,20.758,5.2C27.7,4.174,34.109,2.067,38.435-3.823c5.418-7.378,6.3-15.921,6.575-24.6.052-1.681-1.2-1.878-2.537-1.853a52.692,52.692,0,0,0-18.3,3.145A22.751,22.751,0,0,0,10.846-14.475,43.81,43.81,0,0,0,7.512,2.359m-20.243,9.277a61.967,61.967,0,0,0-.032-6.4c-.883-8-4.441-14.336-12.506-17.4A34.189,34.189,0,0,0-38.886-14.11c-1.478.057-2.128.669-2.034,2.066.148,2.163.225,4.335.49,6.485A23.041,23.041,0,0,0-35.907,6.3c4.6,5.784,11,8.16,18.253,8.784.523.045,1.18.2,1.5-.292.41-.635-.223-1.114-.54-1.589A48.973,48.973,0,0,0-28.223,1.359c-1.06-.8-1.553-1.771-.692-2.889.958-1.243,2.053-.635,3,.11A58.615,58.615,0,0,1-15.281,8.8a8.224,8.224,0,0,0,2.551,2.833" transform="translate(44.683 33.905)" fill="#2b2e34"/>
      </g>
      <g id="Grupo_166" data-name="Grupo 166" transform="translate(308.602 78.049)">
        <path id="Caminho_3334" data-name="Caminho 3334" d="M13.146,10.893c6.241,0,12.483-.043,18.723.026a9.188,9.188,0,0,0,5.609-1.732q24.35-17.31,48.677-34.645c3.644-2.6,4.07-6.375,1.169-8.973-1.938-1.734-4.125-1.919-6.814-.436q-12.862,7.1-25.69,14.258c-1.539.855-3.065,1.729-4.61,2.572-1.249.681-2.658,1.447-3.531-.32-.8-1.628.734-2.236,1.825-2.86,3.917-2.239,7.86-4.438,11.806-6.633,6.084-3.385,12.185-6.742,18.265-10.135,4.863-2.713,9.878-1.652,12.955,2.775,2.584,3.718,1.484,9.316-2.584,12.223q-24.771,17.7-49.615,35.3a11.888,11.888,0,0,1-7.135,2.2c-11.864-.051-23.735-.2-35.6.04-12.312.246-23.961,3.016-34.182,10.1-2.19,1.517-4.218,3.256-6.3,4.923-.989.794-2.084,1.723-3.207.563-1.228-1.267-.14-2.345.837-3.241A59.429,59.429,0,0,1-18.6,12.7c10.5-2.375,21.137-1.674,31.744-1.809" transform="translate(47.631 39.467)" fill="#2b2e34"/>
      </g>
      <g id="Grupo_167" data-name="Grupo 167" transform="translate(282.796 92.43)">
        <path id="Caminho_3335" data-name="Caminho 3335" d="M18.323,0c6.856,0,13.713-.052,20.568.024C42.084.065,45.2.506,47.51,3.08c2.5,2.791,3.316,5.921,1.835,9.374a8.471,8.471,0,0,1-8.214,5.516c-10.785.055-21.57.029-32.354.015-1.309,0-2.941.051-2.863-1.763.071-1.651,1.61-1.8,2.965-1.806Q23.9,14.391,38.921,14.4a21.744,21.744,0,0,0,2.769-.083,5.208,5.208,0,0,0,4.618-4.629A5.393,5.393,0,0,0,42.56,4.111,12.9,12.9,0,0,0,38.685,3.6C25.359,3.6,12.031,3.582-1.3,3.614A24.731,24.731,0,0,0-11.979,6.057c-16.828,7.966-33.708,15.83-50.573,23.722a8.09,8.09,0,0,1-1.718.635,1.648,1.648,0,0,1-1.91-.93,1.483,1.483,0,0,1,.479-2.01,14.971,14.971,0,0,1,2.394-1.341Q-37.918,14.221-12.513,2.339A24.95,24.95,0,0,1-1.783,0c6.7.015,13.4,0,20.106.005" transform="translate(66.385 0.013)" fill="#2b2e34"/>
      </g>
      <g id="Grupo_168" data-name="Grupo 168" transform="translate(0 23.135)">
        <path id="Caminho_3336" data-name="Caminho 3336" d="M4.665,13.872A21.7,21.7,0,0,1-16.771-4.858c-.536-4.391.667-8.411,2.234-12.382,3.256-8.251,7.819-15.844,12.6-23.322C0-43.594,1.991-46.589,4.1-49.512c.73-1.013.866-1,1.589.042A205.481,205.481,0,0,1,21.449-23.6a58.307,58.307,0,0,1,4.5,11.465C27.707-5.264,26.072.891,21.486,6.3A21.673,21.673,0,0,1,4.665,13.872m1.432-1.7A19.534,19.534,0,0,0,21.479,3.485a17.8,17.8,0,0,0,2.756-15.367,52.356,52.356,0,0,0-3.392-9.048A188.728,188.728,0,0,0,5.576-46.575c-.651-.942-.783-.948-1.416-.006C2.469-44.07.751-41.574-.868-39.02-5.462-31.767-9.883-24.42-13-16.423c-1.489,3.814-2.641,7.687-1.98,11.88C-13.466,5.091-5,12.2,6.1,12.174" transform="translate(16.9 50.26)" fill="#2b2e34"/>
      </g>
      <g id="Grupo_169" data-name="Grupo 169" transform="translate(55.153 120.401)">
        <path id="Caminho_3337" data-name="Caminho 3337" d="M3.706.015a23.952,23.952,0,0,1,9.619,1.872,18.641,18.641,0,0,0,14.085-.036,26.751,26.751,0,0,1,19.85.013,19.063,19.063,0,0,0,14.285-.054,26.6,26.6,0,0,1,19.65.031,19.075,19.075,0,0,0,14.285-.008,27.275,27.275,0,0,1,19.663-.047,25.868,25.868,0,0,0,5.876,1.479c1.444.165,1.673,1.025,1.492,2.167-.2,1.266-1.156,1.142-2.1,1.021a28.363,28.363,0,0,1-6.288-1.54A22.928,22.928,0,0,0,97.52,4.628a24.707,24.707,0,0,1-18.547-.061,21.248,21.248,0,0,0-15.6.1,24.351,24.351,0,0,1-18.344-.087,21.543,21.543,0,0,0-15.8.129A24.109,24.109,0,0,1,11.084,4.6,22.817,22.817,0,0,0-4.541,4.581a39.177,39.177,0,0,1-6.647,1.848c-1,.142-2.025.33-2.207-1.1-.156-1.213.253-1.9,1.621-2.086C-8.022,2.722-4.652.823-.876.311a37.218,37.218,0,0,1,4.582-.3" transform="translate(13.426 0.055)" fill="#2b2e34"/>
      </g>
      <g id="Grupo_170" data-name="Grupo 170" transform="translate(55.148 106.926)">
        <path id="Caminho_3338" data-name="Caminho 3338" d="M3.693.017a23.418,23.418,0,0,1,9.117,1.8A20.356,20.356,0,0,0,28.3,1.681a24.932,24.932,0,0,1,18.634.167A19.415,19.415,0,0,0,62.2,1.684,21.736,21.736,0,0,1,64.808.917a23.068,23.068,0,0,1,14.834.538,22.6,22.6,0,0,0,17.291.04,24.069,24.069,0,0,1,16.851-.069c2.433.823,4.819,1.846,7.466,1.955,1.046.042,1.369.79,1.349,1.724a1.323,1.323,0,0,1-1.592,1.444,12.687,12.687,0,0,1-2.487-.29c-1.755-.461-3.492-.986-5.21-1.563A22.436,22.436,0,0,0,97.5,4.747a23.8,23.8,0,0,1-18.141.024,21.4,21.4,0,0,0-15.986.014,23.575,23.575,0,0,1-17.941.009,21.645,21.645,0,0,0-16.186.029,23.327,23.327,0,0,1-17.74-.006,22.655,22.655,0,0,0-16.2-.061,28.75,28.75,0,0,1-6.242,1.737c-1.009.119-2.195.356-2.409-1.187-.2-1.41.49-1.927,1.876-2.062A24.416,24.416,0,0,0-6.029,1.763,28.455,28.455,0,0,1,3.693.017" transform="translate(13.379 0.062)" fill="#2b2e34"/>
      </g>
      <g id="Grupo_171" data-name="Grupo 171" transform="translate(81.465 14.669)">
        <path id="Caminho_3339" data-name="Caminho 3339" d="M1.476,19.36c-5.639-.077-8.424-5.132-5.87-9.989,2.359-4.485,5.45-8.533,8-12.9,4.213-7.216,8.489-14.4,12.672-21.628A11.434,11.434,0,0,1,20.671-29.4c7.16-4.115,14.221-8.4,21.461-12.372,3.043-1.672,5.151-4.092,7.275-6.611q8.18-9.694,16.389-19.366a7.775,7.775,0,0,1,9.372-1.4A6.356,6.356,0,0,1,77.081-60.3c-3.046,4.47-6.206,8.868-9.592,13.121C63.685-42.4,60.156-37.4,56.7-32.363a30.043,30.043,0,0,1-10.183,9.487C38.96-18.622,31.545-14.124,24.061-9.743a7.855,7.855,0,0,0-2.862,2.9C16.8.58,12.354,7.977,7.934,15.39,6.423,17.923,4.4,19.6,1.476,19.36m.052-3.287c1.746.116,2.7-1.025,3.5-2.373Q11.88,2.221,18.713-9.265a6.618,6.618,0,0,1,2.329-2.552c3.119-1.821,6.186-3.723,9.3-5.549,4.009-2.35,7.93-4.885,12.1-6.931,5.991-2.94,10.022-7.6,13.665-12.886a210.685,210.685,0,0,1,12.56-17.09,74.893,74.893,0,0,0,5.307-7.347,3.277,3.277,0,0,0-.393-4.494,3,3,0,0,0-3.878-.218,15.023,15.023,0,0,0-2.964,2.565Q59.766-55.611,52.919-47.35A36.517,36.517,0,0,1,41.756-37.7c-6.637,3.49-13,7.471-19.506,11.2a8.934,8.934,0,0,0-3.3,3.316C12.515-12.44,6.7-1.333-.321,9.088a10.049,10.049,0,0,0-1.444,3.148c-.588,2.405.688,3.838,3.293,3.837" transform="translate(5.347 70.143)" fill="#2b2e34"/>
      </g>
      <g id="Grupo_172" data-name="Grupo 172" transform="translate(72.339 53.059)">
        <path id="Caminho_3340" data-name="Caminho 3340" d="M2.393,0C8.906.045,13.276,4.353,13.212,10.662c-.063,6.069-4.737,10.276-11.36,10.225A10.269,10.269,0,0,1-8.67,10.28C-8.633,4.248-4.014-.043,2.393,0m7.46,10.516C9.878,6.01,7,3.3,2.161,3.269c-4.4-.029-7.438,2.84-7.472,7.063a6.919,6.919,0,0,0,7.26,7.275c4.581-.024,8.077-2.756,7.9-7.091" transform="translate(8.67 0)" fill="#2b2e34"/>
      </g>
    </g>
  </g>
</svg>
