<svg xmlns="http://www.w3.org/2000/svg" xmlns:xlink="http://www.w3.org/1999/xlink" width="410.502" height="177.654" viewBox="0 0 410.502 177.654">
  <defs>
    <clipPath id="clip-path">
      <path id="Caminho_3331" data-name="Caminho 3331" d="M0,53.913H410.5V-123.74H0Z" transform="translate(0 123.74)" fill="none"/>
    </clipPath>
  </defs>
  <g id="Grupo_163" data-name="Grupo 163" transform="translate(0 123.74)">
    <g id="Grupo_162" data-name="Grupo 162" transform="translate(0 -123.74)" clip-path="url(#clip-path)">
      <g id="Grupo_147" data-name="Grupo 147" transform="translate(171.131 39.12)">
        <path id="Caminho_3316" data-name="Caminho 3316" d="M19.692,9.612c-.03,17.323-14.735,31.5-32.62,31.458-17.787-.047-32.335-14.384-32.267-31.8.066-17.181,14.752-31.343,32.49-31.33,17.824.013,32.428,14.289,32.4,31.673M15.548,9.59A27.739,27.739,0,0,0-10.244-17.961c-11.982-.716-21.421,3.945-27.237,14.167-5.872,10.321-4.782,20.563,2.271,30.167.491.669.923,1.635,1.93,1.493.922-.129.9-1.159,1.151-1.841A18.615,18.615,0,0,1-23.481,15.85c2.268-1.242,2.577-1.955.953-4.044-3.7-4.768-2.68-11.428,2.033-15.365,4.613-3.852,12.2-3.71,16.261.306A11.391,11.391,0,0,1-3.541,12.47c-1.213,1.38-1.116,2.069.541,2.8A18.092,18.092,0,0,1,6.875,26.255c.22.606.233,1.485,1.113,1.545.784.055,1.164-.672,1.569-1.209,3.818-5.057,6.234-10.585,5.991-17M-12.774,37.037A27.705,27.705,0,0,0,2.074,32.9a2.824,2.824,0,0,0,1.42-3.407,15.968,15.968,0,0,0-5.641-8.924c-8.939-7.622-24.1-2.869-26.744,8.373-.445,1.888-.181,3.177,1.717,4.207,4.5,2.441,9.173,4.087,14.4,3.891m.267-24.437A7.415,7.415,0,0,0-4.874,4.972a7.545,7.545,0,0,0-7.926-7.7,7.6,7.6,0,0,0-7.82,7.848c0,4.35,3.407,7.493,8.115,7.476" transform="translate(45.196 22.061)" fill="#2b2e34"/>
      </g>
      <g id="Grupo_148" data-name="Grupo 148" transform="translate(223.499 126.752)">
        <path id="Caminho_3317" data-name="Caminho 3317" d="M7.9,15.447C-6.216,15.4-18.217,3.582-18.137-10.185c.082-13.727,12.259-25.377,26.411-25.268,13.991.108,25.932,11.863,25.907,25.505C34.157,3.793,22.044,15.5,7.9,15.447M6.683-31.487A21.146,21.146,0,0,0-11.625-19.662c-3.958,7.652-3.167,15.075,1.789,22.137,1.055,1.5,1.7,1.485,2.362-.212A15.374,15.374,0,0,1-.6-5.483C.651-6.213.985-6.8.015-8.035a9.131,9.131,0,0,1-1.9-4.949,9.193,9.193,0,0,1,5.708-9.43,10.536,10.536,0,0,1,11.579,2.179A9.307,9.307,0,0,1,16.662-9.119c-1.2,1.915-1.459,2.936.85,4.255a14.117,14.117,0,0,1,5.639,6.209c.379.784.35,2.161,1.492,2.108.91-.043,1.381-1.2,1.876-1.984,4.4-6.929,4.82-14.173.955-21.32-4.108-7.6-10.812-11.516-20.79-11.636M8.438,11.427c3.295.082,6.718-1.062,10.076-2.55,2-.889,2.326-2.2,1.668-4.126A13.416,13.416,0,0,0,7.816-3.823,13.29,13.29,0,0,0-4.221,5.558,2.4,2.4,0,0,0-2.74,8.649,23.118,23.118,0,0,0,8.438,11.427M8.044-7.929c3.474,0,5.707-2.151,5.75-5.532a5.656,5.656,0,0,0-5.728-5.684A5.744,5.744,0,0,0,2.257-13.5,5.567,5.567,0,0,0,8.044-7.929" transform="translate(18.137 35.454)" fill="#2b2e34"/>
      </g>
      <g id="Grupo_149" data-name="Grupo 149" transform="translate(133.426 126.753)">
        <path id="Caminho_3318" data-name="Caminho 3318" d="M15.877,7.757C15.827,21.494,3.688,33.172-10.46,33.1c-14.11-.076-26.088-11.919-25.98-25.687C-36.333-6.2-24.252-17.826-10.232-17.8,3.9-17.784,15.928-6,15.877,7.757M-32.3,7.384A20.085,20.085,0,0,0-28.2,20.06c1.219,1.7,1.82,1.41,2.492-.3a14.676,14.676,0,0,1,6.507-7.4c1.607-.932,1.7-1.575.7-3.107-2.939-4.527-2.011-9.918,1.96-12.8A10.53,10.53,0,0,1-3.5-3.164,9.5,9.5,0,0,1-1.984,9.147c-1.052,1.6-1,2.248.718,3.293a14.472,14.472,0,0,1,6.353,7.213c.831,2.24,1.66,1.584,2.659.156A20.331,20.331,0,0,0,11.117,2.849C8.616-7.891-1.591-14.868-13.114-13.717A21.776,21.776,0,0,0-32.3,7.384m22.049,6.442a13.35,13.35,0,0,0-11.958,8.433c-.823,2.037-.422,3.334,1.624,4.323A22.752,22.752,0,0,0,.461,26.4c1.754-.867,2.016-2.067,1.487-3.772a13.321,13.321,0,0,0-12.2-8.8m.1-4.106A5.3,5.3,0,0,0-4.509,4.08,5.658,5.658,0,0,0-10.348-1.5a5.753,5.753,0,0,0-5.7,5.753,5.591,5.591,0,0,0,5.9,5.463" transform="translate(36.441 17.804)" fill="#2b2e34"/>
      </g>
      <g id="Grupo_150" data-name="Grupo 150" transform="translate(192.09 151.202)">
        <path id="Caminho_3319" data-name="Caminho 3319" d="M3.76,1.223c-3.311,0-6.621-.007-9.932,0-1.35,0-2.411-.231-2.455-1.9-.049-1.753.956-2.141,2.481-2.136q10.064.03,20.126.006c1.357,0,2.4.246,2.461,1.9C16.5.866,15.466,1.24,13.953,1.23c-3.4-.023-6.8-.007-10.193-.007" transform="translate(8.629 2.807)" fill="#2b2e34"/>
      </g>
      <g id="Grupo_151" data-name="Grupo 151" transform="translate(223.277 102.127)">
        <path id="Caminho_3320" data-name="Caminho 3320" d="M.625,0c.87-.095,1.233.54,1.576,1.111Q7.465,9.877,12.7,18.657c.622,1.041.579,1.884-.66,2.512-1.217.617-2.192.861-3.036-.593C5.663,14.834,2.23,9.144-1.092,3.394A2.2,2.2,0,0,1,.625,0" transform="translate(1.434 0.007)" fill="#2b2e34"/>
      </g>
      <g id="Grupo_152" data-name="Grupo 152" transform="translate(169.648 102.112)">
        <path id="Caminho_3321" data-name="Caminho 3321" d="M4.357.7a12.321,12.321,0,0,1-.662,1.5C.608,7.406-2.542,12.584-5.575,17.826c-.92,1.589-1.986,1.585-3.46.917-1.049-.475-1.213-1-.632-1.965C-6.246,11.07-2.872,5.334.542-.38c.428-.718.9-1.6,2.02-1.051C3.4-1.016,4.319-.6,4.357.7" transform="translate(10 1.603)" fill="#2b2e34"/>
      </g>
      <g id="Grupo_153" data-name="Grupo 153" transform="translate(280.649 75.338)">
        <path id="Caminho_3322" data-name="Caminho 3322" d="M12.111,25.04c0,5.652-.053,11.3.03,16.957.026,1.711-.6,2.271-2.317,2.218-3.2-.1-6.416-.106-9.621,0-1.787.06-2.266-.629-2.257-2.274C-2,30.873-2.024,19.8-2.026,8.735c0-2.7-.007-2.706-2.85-2.709-3.087,0-6.175-.059-9.259.022-1.581.042-2.024-.412-1.6-1.95,2.666-9.542,5.269-19.1,7.893-28.657.531-1.932,1.124-3.852,1.588-5.8.579-2.425-1.049-4.242-2-6.227-.256-.534-.818-.347-1.278-.1-.477.253-.948.523-1.447.728a1.19,1.19,0,0,1-1.459-.388,1.084,1.084,0,0,1,.067-1.605A40.324,40.324,0,0,1-6.25-42.033a1.172,1.172,0,0,1,1.589.441,1.112,1.112,0,0,1-.171,1.607c-1.331.958-.965,2.059-.329,3.087,2.086,3.365,1.974,6.7.838,10.44C-7.094-17.314-9.448-8.051-11.968,1.163c-.544,1.988-.51,2.057,1.49,2.059,10.349.01,20.7-.024,31.046.033,1.727.01,1.862-.561,1.449-1.99-.65-2.251-1.64-4.433-1.558-6.863a5.826,5.826,0,0,1,1.97-4.574c5.552-4.656,5.436-11.461,1.605-16.9Q15.568-39.083,6.92-50.978c-3.071-4.227-8.093-4.934-12.443-1.935q-8.367,5.769-16.74,11.529c-3.5,2.416-3.562,5.487-.188,8.069q4.921,3.764,9.837,7.533c.19.146.4.273.576.429.734.639,1.286,1.424.551,2.289-.685.808-1.536.411-2.254-.128q-3.159-2.375-6.3-4.767c-1.476-1.123-2.935-2.27-4.415-3.391-4.53-3.433-4.446-8.725.233-12.033,2.936-2.076,5.915-4.095,8.886-6.125C-12.57-51.4-9.81-53.317-7-55.158-.939-59.126,5.4-57.922,9.58-52.072q8.136,11.379,16.292,22.744a17.921,17.921,0,0,1,3.706,10.146A12.55,12.55,0,0,1,25.232-9.091a4.933,4.933,0,0,0-1.638,5.838c.815,2.4,1.388,4.88,2.207,7.28.5,1.47.227,2.052-1.454,2.017C20.96,5.976,17.567,6.08,14.18,6c-1.6-.037-2.106.576-2.092,2.08.059,5.652.024,11.3.023,16.957m-2.88-1.235c0-5.295-.024-10.588.016-15.883.01-1.325-.438-1.97-1.882-1.908C5.8,6.08,4.222,6.057,2.65,6.02c-1.176-.027-1.8.368-1.8,1.618Q.878,23.7.848,39.756c0,1.235.59,1.667,1.782,1.638,1.51-.037,3.026-.076,4.532.013,1.6.093,2.11-.566,2.093-2.072-.062-5.176-.023-10.353-.024-15.53" transform="translate(27.798 57.472)" fill="#2b2e34"/>
      </g>
      <g id="Grupo_154" data-name="Grupo 154" transform="translate(297.72 49.834)">
        <path id="Caminho_3323" data-name="Caminho 3323" d="M7.035,3.435A11.718,11.718,0,0,1-4.6,14.67c-6.2-.037-11.585-5.312-11.55-11.318A11.714,11.714,0,0,1-4.513-7.883C1.693-7.846,7.074-2.572,7.035,3.435m-2.867,0a8.631,8.631,0,0,0-8.59-8.527A8.753,8.753,0,0,0-13.28,3.393a8.634,8.634,0,0,0,8.629,8.488A8.541,8.541,0,0,0,4.168,3.433" transform="translate(16.147 7.883)" fill="#2b2e34"/>
      </g>
      <g id="Grupo_155" data-name="Grupo 155" transform="translate(337.122 14.984)">
        <path id="Caminho_3324" data-name="Caminho 3324" d="M10.265.017C13.744.381,17.41.768,21.08,1.146q6.654.683,13.312,1.355,5.4.553,10.8,1.12c1.118.115,2.237.22,3.357.324s1.367.368,1.249,1.427c-.749,6.728-1.519,13.454-2.25,20.184-.813,7.479-1.589,14.96-2.386,22.44-.116,1.088-.309,2.171-.373,3.26-.047.794-.442,1-1.16.923q-4.139-.446-8.278-.883-4.454-.467-8.907-.929c-.777-.082-1.123.144-.923.978.349,1.467.637,2.947.949,4.422.333,1.575.333,1.584-1.332,1.917Q16.345,59.447,7.556,61.2q-10.025,2.016-20.044,4.066c-.876.181-1.246.023-1.437-.886q-4.69-22.281-9.437-44.551c-.38-1.8-.375-1.789,1.519-2.169,9.407-1.885,18.809-3.787,28.221-5.648a1.325,1.325,0,0,0,1.263-1.42c.293-3.3.7-6.6,1.027-9.9.1-1.054.833-.656,1.6-.676M24.724,55.47c-.04-.2-.079-.4-.121-.6q-4.438-20.958-8.854-41.921c-.2-.963-.58-1.126-1.49-.94q-17.192,3.5-34.394,6.943c-1.71.343-1.708.332-1.354,2l8.791,41.3c.274,1.288.339,1.344,1.683,1.074q11.468-2.3,22.934-4.613,5.939-1.2,11.878-2.4c.478-.1,1.039-.121.927-.843m23.3-48.979c.314-.847-.339-1.042-1.25-1.131q-8.442-.823-16.878-1.693Q20.566,2.7,11.243,1.7c-.768-.082-1.062.188-1.124.945C9.936,4.856,9.7,7.065,9.455,9.275c-.237,2.152-.26,2.1,2.009,1.708a1.477,1.477,0,0,0,1.421-1.576c.055-.989.177-1.974.27-2.962a1.024,1.024,0,0,1,1.315-1.06c2.233.258,4.469.482,6.7.715,3.632.376,7.266.744,10.9,1.126,3.772.395,7.542.813,11.315,1.193.721.072.956.32.861,1.049-.349,2.712-.648,5.431-.94,8.15q-1.083,10.1-2.138,20.195c-.072.7-.428.863-1.052.793q-2.25-.254-4.5-.492-6.129-.65-12.257-1.3c-.589-.063-.89.125-.758.741q1.12,5.227,2.241,10.452a.858.858,0,0,0,.889.709q8.283.827,16.559,1.691c.656.069.953-.033,1.025-.747.309-3.061.688-6.115,1.016-9.174.594-5.506,1.16-11.016,1.757-16.522.623-5.743,1.268-11.486,1.931-17.477M18.2,16.861c.343-.388.475-.541.613-.691a4.662,4.662,0,0,1,6.745-.419,4.374,4.374,0,0,1-.246,6.708c-.485.421-.424.653-.05,1.065A4.91,4.91,0,0,1,26.607,27.4q-.334,3.571-.673,7.144c-.04.425-.258.936.481,1.006.679.063.955-.309,1.014-.906.083-.851.122-1.708.258-2.55.223-1.37-.006-2.94,1.093-3.987a2.206,2.206,0,0,0,.673-2.986,3.505,3.505,0,0,1,1.938-4.393,4,4,0,0,1,4.9,1.19,3.8,3.8,0,0,1-.419,4.818c-.471.471-.544.749-.083,1.259a3.522,3.522,0,0,1,.949,2.746c-.115,1.327-.2,2.657-.368,3.98-.214,1.686,0,1.973,1.766,2.07.211.013.422,0,.633.011.606.026.877-.241.936-.841.181-1.836.409-3.668.612-5.5q1.044-9.532,2.086-19.062c.141-1.272,0-1.516-1.314-1.663-2.757-.31-5.517-.586-8.277-.869-5.273-.54-10.551-1.055-15.821-1.618-2.336-.25-2.289-.286-2.462,1.984-.072.93.174,1.232,1.084.91.856-.3,1.249.047,1.348.864.037.306.122.6.187.906L18.2,16.861m16.924,14.45c-.017,0-.036,0-.053-.006V30.9c0-1.81-.8-2.805-2.375-2.937a2.689,2.689,0,0,0-3.167,2.533c-.207,1.417-.29,2.853-.518,4.265-.136.85.266,1.117,1,1.194,1.219.128,2.439.254,3.658.389.528.059.893-.059.956-.658.154-1.457.327-2.914.494-4.372M24.991,27.688l-.059-.006c0-.342.01-.685,0-1.027a3.469,3.469,0,0,0-3.786-3.187c-1.235.121-1.449.4-1.2,1.584q.915,4.372,1.841,8.745a3.618,3.618,0,0,0,.251.887c.357.7,1.1.49,1.686.566.376.047.51-.3.544-.632q.366-3.465.728-6.93m-2.643-5.875a2.743,2.743,0,0,0,2.995-2.742,2.964,2.964,0,0,0-3.055-2.989,3.053,3.053,0,0,0-2.854,2.889,2.789,2.789,0,0,0,2.914,2.843m12.926,2.366A2.014,2.014,0,0,0,33.159,22a2.267,2.267,0,0,0-2.3,2.1,2.292,2.292,0,0,0,2.2,2.207,2.1,2.1,0,0,0,2.211-2.123" transform="translate(23.56 0.04)" fill="#2b2e34"/>
      </g>
      <g id="Grupo_156" data-name="Grupo 156" transform="translate(343.082 30.951)">
        <path id="Caminho_3325" data-name="Caminho 3325" d="M11.089,8.72c.092.837-.448.917-.986,1.025q-6.456,1.294-12.91,2.6-7.434,1.5-14.868,3.014c-1.631.332-1.624.34-1.945-1.176Q-22.45.816-25.283-12.55c-.322-1.515-.32-1.507,1.278-1.828q13.843-2.776,27.679-5.572c.938-.191,1.338.011,1.532.938Q8.089-5.289,11.027,8.423c.029.134.056.267.062.3M-17.14,13.613c.464-.1,1.217-.267,1.974-.418q11.625-2.33,23.251-4.649c.729-.145,1.249-.279,1.042-1.238Q6.49-4.947,3.926-17.217c-.168-.8-.484-1.06-1.367-.88q-12.6,2.556-25.215,5.035c-.8.158-1.009.469-.827,1.268.675,2.939,1.273,5.894,1.9,8.842q1.66,7.841,3.322,15.682c.095.449.063,1.028,1.123.883" transform="translate(25.451 20.015)" fill="#2b2e34"/>
      </g>
      <g id="Grupo_157" data-name="Grupo 157" transform="translate(351.48 40.168)">
        <path id="Caminho_3326" data-name="Caminho 3326" d="M5.418,1.657c-.059,2.251-1.187,4.52-2.5,6.729A38.464,38.464,0,0,1-.209,12.764a1.3,1.3,0,0,1-1.757.421,25.268,25.268,0,0,1-8.844-6.5A5.666,5.666,0,0,1-12.3,1.642,4.639,4.639,0,0,1-5.028-1.286c.751.485,1.061.415,1.551-.3A4.324,4.324,0,0,1,1.859-3.534,5.115,5.115,0,0,1,5.418,1.657m-1.694-.2a6.623,6.623,0,0,0,0-.716A3.423,3.423,0,0,0,.874-2.174,2.81,2.81,0,0,0-2.2-.523c-.273.475-.461,1-.7,1.49-.391.805-.991.92-1.66.309-.2-.187-.347-.434-.554-.614-.939-.818-1.951-1.568-3.3-1.126a3.339,3.339,0,0,0-2.367,2.887A4.463,4.463,0,0,0-9.258,6,27.681,27.681,0,0,0-2.4,11.213a1.119,1.119,0,0,0,1.686-.4,36.747,36.747,0,0,0,2.925-4.5A10.227,10.227,0,0,0,3.724,1.459" transform="translate(12.435 3.804)" fill="#2b2e34"/>
      </g>
      <g id="Grupo_158" data-name="Grupo 158" transform="translate(100.486 0)">
        <path id="Caminho_3327" data-name="Caminho 3327" d="M15.764,20.749a47.638,47.638,0,0,1,5.915-24.23c.9-1.7.431-2.54-1.077-3.282a5.992,5.992,0,0,1-1.161-.653C16-10.223,12.968-10.839,8.989-7.6,6.224-5.356,2.207-5.627-1.17-7.647c-9.687-5.8-19.346-11.638-29.047-17.412-7.176-4.271-6.868-11.625-4.309-15.882,3.975-6.613,10.562-8.59,17.421-4.7C-7.357-40.121,2.21-34.289,11.752-28.433c4.531,2.781,6.046,7.242,4.436,12.561-.553,1.825-.161,2.732,1.5,3.522,2.311,1.1,4.271,3.743,6.743,3.413,2.53-.337,3.371-3.566,5.143-5.348,10.588-10.646,23.449-16.4,38.755-16.2,15.287.2,28.277,5.972,38.3,17.144,10.442,11.635,14.439,25.329,12.08,40.749A46.872,46.872,0,0,1,107.391,51.88C95,65.789,79.132,71.823,60.152,69.493A50.919,50.919,0,0,1,32.8,57.1a47.07,47.07,0,0,1-15.847-26.9,49.057,49.057,0,0,1-1.193-9.443m52-48.29C42-27.53,20.88-7.831,19.469,16.831,17.932,43.706,39.623,66.38,67.889,66.446c24.239.057,48.347-19.422,48.175-47.4-.148-23.861-20.828-46.653-48.3-46.59M13.23-18.626c.287-4.574-2.123-6.273-4.685-7.812Q-5.05-34.6-18.684-42.7c-4.893-2.9-8.911-1.806-12.212,3.187-2.778,4.205-2.059,8.554,2.4,11.32C-18.989-22.287-9.336-16.609.3-10.9a6.619,6.619,0,0,0,5.1,1c4.956-1.177,7.635-4.416,7.83-8.726" transform="translate(36.182 47.624)" fill="#2b2e34"/>
      </g>
      <g id="Grupo_159" data-name="Grupo 159" transform="translate(18.865 71.092)">
        <path id="Caminho_3328" data-name="Caminho 3328" d="M9.655.035C18.908-.037,28-.918,36.343,3.6c3.743,2.029,6.534,4.616,5.925,9.293-.36,2.768-2.046,4.815-3.907,6.69A88.046,88.046,0,0,1,31.8,25.49a48.414,48.414,0,0,0-7.537,7.988c-4.291,5.583-4.2,10.555.1,16.157,4.248,5.533,10.114,9.154,15.989,12.745,14.913,9.115,30.8,16.581,45.8,25.547a269.55,269.55,0,0,1,22.588,14.892c.468.346.876.77,1.594,1.41-2.577.335-4.7.551-6.755-.938C90.627,93.9,76.6,86.187,62.487,78.619,52.3,73.154,42.046,67.793,32.447,61.361a49.561,49.561,0,0,1-10.623-9.25c-5.362-6.413-5.56-13.671-.368-20.642a63.292,63.292,0,0,1,11.49-11.511,24.7,24.7,0,0,0,5.121-5.433c1.543-2.277,1.388-4.2-.695-6.039-4.079-3.595-9.137-4.7-14.442-5.042a1.319,1.319,0,0,0-1,.289c-.327.468.217.755.488,1.068.238.277.525.515.781.78,4.489,4.643,3.958,8.548-1.637,11.813C13.5,22.1,5.074,26.159-3.176,30.534a58.243,58.243,0,0,0-9.477,6.156C-18.7,41.6-20.21,47.86-17.218,55.338c2.451,6.128,6.3,11.521,9.812,17.076,6.327,10.018,13.114,19.748,20.022,29.4.507.708,1.986,1.777.9,2.415a3.03,3.03,0,0,1-4.008-.811q-2.1-2.955-4.174-5.928C-3.358,84.985-12.107,72.51-19.286,59.1a21.541,21.541,0,0,1-2.672-13.463c.933-6.475,5.319-10.5,10.383-14.06,4.616-3.24,9.756-5.608,14.75-8.205,5.787-3.011,11.626-5.929,17.217-9.283,2.937-1.762,3.143-3.2.761-5.714-2.771-2.925-6.265-4.89-9.738-6.881-.558-.322-1.275-.447-1.76-1.454" transform="translate(22.16 0.08)" fill="#2b2e34"/>
      </g>
      <g id="Grupo_160" data-name="Grupo 160" transform="translate(0 43.408)">
        <path id="Caminho_3329" data-name="Caminho 3329" d="M4.627,15.279H4.179c-3.938,0-3.938,0-3.987-3.739C.157,8.887.041,8.769-2.776,8.753c-2.088-.013-4.176-.036-6.264,0-1.688.03-1.907-.612-1.2-1.993C-8.523,3.381-6.928-.06-5.188-3.43c.8-1.548.647-2.307-1.318-2.211-1.674.083-1.6-.719-1.072-1.921C-3.761-16.308.014-25.073,3.814-33.828c.217-.5.271-1.282,1.028-1.238.569.033.7.708.9,1.159Q11.486-20.678,17.219-7.441c.574,1.318.319,1.911-1.223,1.82-1.687-.1-1.908.612-1.212,1.986,1.651,3.252,3.223,6.541,4.838,9.81,1.19,2.409,1.116,2.553-1.542,2.571-2.238.016-4.477.057-6.712-.007-1.635-.047-2.359.632-2.24,2.2.006.072,0,.145,0,.217.043,4.465.207,4.112-4.5,4.123M4.812,5.3c2.758,0,5.517-.049,8.274.019,1.739.043,2.118-.445,1.305-2.011C12.642-.059,11.085-3.516,9.319-6.871c-.884-1.68-.7-2.4,1.381-2.221,1.226.1,1.921-.29,1.332-1.642C9.91-15.607,7.8-20.486,5.668-25.354c-.19-.431-.3-1.083-.971-1.024-.505.043-.62.577-.788.968C1.863-20.664-.147-15.9-2.232-11.171c-.653,1.485-.409,2.234,1.374,2.085C1.175-9.256,1.2-8.463.409-6.949c-1.714,3.3-3.3,6.659-4.943,10C-5.58,5.177-5.514,5.282-3.014,5.3c2.609.014,5.217,0,7.826,0" transform="translate(10.619 35.067)" fill="#2b2e34"/>
      </g>
      <g id="Grupo_161" data-name="Grupo 161" transform="translate(96.803 58.495)">
        <path id="Caminho_3330" data-name="Caminho 3330" d="M6.467,0c2.742,6.3,5.387,12.363,8.024,18.431,2.788,6.415,5.588,12.824,8.346,19.251.94,2.192.6,2.632-1.882,2.772-2.85.162-2.854.192-1.624,2.7,2.566,5.24,5.061,10.512,7.691,15.721.864,1.708.428,2.133-1.393,2.1-3.8-.072-7.608.019-11.411-.034-1.6-.022-2.347.56-2.289,2.165.06,1.667-.026,3.338.009,5.006.029,1.354-.547,2.011-1.986,1.99q-3.579-.054-7.16,0c-1.4.022-2.069-.547-2.037-1.938.034-1.6-.072-3.2.014-4.789.1-1.766-.61-2.488-2.467-2.444-3.579.086-7.161.029-10.742.02-2.823-.006-2.84-.02-1.687-2.4q3.715-7.68,7.464-15.343c1.263-2.58,1.272-2.594-1.549-2.746-2.59-.141-2.894-.558-1.872-2.927Q-2.118,19.065,5.894.623C5.947.5,6.082.412,6.467,0M6.21,57.5c4.545,0,9.092-.037,13.638.017,1.838.023,2.488-.386,1.551-2.241-2.5-4.943-4.848-9.955-7.3-14.917-1.588-3.21-2.188-3.494,2.162-3.331,1.92.072,2.375-.5,1.588-2.276-3.532-7.99-6.973-16.017-10.475-24.018-.243-.554-.335-1.451-1.143-1.424-.679.023-.693.863-.915,1.368-3.319,7.6-6.6,15.226-9.926,22.829-1.515,3.46-1.549,3.446,2.336,3.506,2.406.037,2.458.136,1.385,2.326C-3.518,44.706-6.107,50.09-8.773,55.435c-.775,1.556-.37,2.09,1.347,2.076,4.545-.037,9.091-.013,13.636-.01m2.179,6.306c-.016-1.375.243-2.834-1.987-2.866-2.169-.032-2.133,1.306-2.1,2.754s-.274,3,2.1,2.97c2.23-.03,1.973-1.487,1.987-2.858" transform="translate(14.843)" fill="#2b2e34"/>
      </g>
    </g>
  </g>
</svg>
