<svg xmlns="http://www.w3.org/2000/svg" width="16.921" height="18.916" viewBox="0 0 16.921 18.916">
  <path id="ee630ab5fc4d6727f1baafbd4faad9f4" d="M5.534,1.343l9.957,5.751L12.658,9.927,3.731,1.086c.172,0,.429-.086.6-.086A1.971,1.971,0,0,1,5.534,1.343ZM2.1,17.653V3.232a2.241,2.241,0,0,1,.858-1.717l9.013,9.013L3.044,19.456A2.239,2.239,0,0,1,2.1,17.653Zm3.434,1.974a2.742,2.742,0,0,1-1.631.258l8.756-8.67,2.747,2.747L5.534,19.627ZM17.98,12.417l-1.8,1.03-3-2.919,3-3,1.717,1.03a2.271,2.271,0,0,1,1.116,1.974,2.071,2.071,0,0,1-1.03,1.888Z" transform="translate(-2.1 -1)" fill="#b7b7b7"/>
</svg>
