<svg xmlns="http://www.w3.org/2000/svg" width="21.619" height="21.619" viewBox="0 0 21.619 21.619">
  <path id="Icon_awesome-spotify" data-name="Icon awesome-spotify" d="M10.81.563a10.81,10.81,0,1,0,10.81,10.81A10.813,10.813,0,0,0,10.81.563ZM15.2,16.468a.832.832,0,0,1-.466-.157c-2.72-1.639-5.884-1.709-9.01-1.068a2.814,2.814,0,0,1-.519.113.679.679,0,0,1-.689-.689.691.691,0,0,1,.593-.732c3.57-.789,7.218-.719,10.33,1.142a.737.737,0,0,1,.423.719.659.659,0,0,1-.663.671Zm1.173-2.859a1.076,1.076,0,0,1-.536-.183,14.125,14.125,0,0,0-10.4-1.281,1.8,1.8,0,0,1-.519.113.846.846,0,0,1-.846-.846.858.858,0,0,1,.676-.9A14.661,14.661,0,0,1,9.01,9.916,15.258,15.258,0,0,1,16.724,11.9a.909.909,0,0,1,.493.859A.845.845,0,0,1,16.371,13.608Zm1.351-3.321a1,1,0,0,1-.562-.17c-3.1-1.852-8.652-2.3-12.244-1.295a2.07,2.07,0,0,1-.562.113A1.006,1.006,0,0,1,3.339,7.907,1.03,1.03,0,0,1,4.1,6.865,18.268,18.268,0,0,1,9.219,6.2a18.409,18.409,0,0,1,8.953,2.083,1.023,1.023,0,0,1,.562.985,1.01,1.01,0,0,1-1.011,1.016Z" transform="translate(0 -0.563)" fill="#b7b7b7"/>
</svg>
