<svg xmlns="http://www.w3.org/2000/svg" xmlns:xlink="http://www.w3.org/1999/xlink" width="73.876" height="72.836" viewBox="0 0 73.876 72.836">
  <defs>
    <clipPath id="clip-path">
      <path id="Caminho_3303" data-name="Caminho 3303" d="M0,0H73.876V-72.836H0Z" fill="none"/>
    </clipPath>
  </defs>
  <g id="Grupo_143" data-name="Grupo 143" transform="translate(0 72.836)">
    <g id="Grupo_132" data-name="Grupo 132" clip-path="url(#clip-path)">
      <g id="Grupo_124" data-name="Grupo 124" transform="translate(65.856 -55.544)">
        <path id="Caminho_3295" data-name="Caminho 3295" d="M0,0A11.215,11.215,0,0,0,4.719,6.209a2.183,2.183,0,0,0,2.978-.7,2.117,2.117,0,0,0-.7-2.936A6.764,6.764,0,0,1,4.367-.646,6.528,6.528,0,0,1,1.529,0Z" fill="#fff"/>
      </g>
      <g id="Grupo_125" data-name="Grupo 125" transform="translate(69.548 -61.946)">
        <path id="Caminho_3296" data-name="Caminho 3296" d="M0,0V-1.707A2.136,2.136,0,0,0-1.492-3.735l-20.434-6.587V2.134H-2.164A2.15,2.15,0,0,0,0,0" fill="#fff"/>
      </g>
      <g id="Grupo_126" data-name="Grupo 126" transform="translate(71.713 -33.786)">
        <path id="Caminho_3297" data-name="Caminho 3297" d="M0,0H-.051C-2,.04-3.7-1.667-4.54-4.111a6.529,6.529,0,0,1-2.673.57H-8.89A12.448,12.448,0,0,0-6.9.608,8.492,8.492,0,0,0,.049,4.267,2.147,2.147,0,0,0,2.162,2.084,2.149,2.149,0,0,0,0,0Z" fill="#fff"/>
      </g>
      <g id="Grupo_127" data-name="Grupo 127" transform="translate(66.664 -43.728)">
        <path id="Caminho_3298" data-name="Caminho 3298" d="M0,0V-1.432a2.136,2.136,0,0,0-1.4-2l-17.639-6.54v12.1H-2.164A2.15,2.15,0,0,0,0,0Z" fill="#fff"/>
      </g>
      <g id="Grupo_128" data-name="Grupo 128" transform="translate(6.71 -37.914)">
        <path id="Caminho_3299" data-name="Caminho 3299" d="M0,0C-.834,2.456-2.56,4.176-4.5,4.129A2.153,2.153,0,0,0-6.709,6.213,2.147,2.147,0,0,0-4.6,8.4C-.325,8.584,3.337,4.7,4.345.579H2.692A6.52,6.52,0,0,1,0,0" fill="#fff"/>
      </g>
      <g id="Grupo_129" data-name="Grupo 129" transform="translate(7.238 -45.16)">
        <path id="Caminho_3300" data-name="Caminho 3300" d="M0,0V1.423A2.149,2.149,0,0,0,2.164,3.556H19.052v-12.1L1.4-2A2.135,2.135,0,0,0,0,0" fill="#fff"/>
      </g>
      <g id="Grupo_130" data-name="Grupo 130" transform="translate(2.192 -49.018)">
        <path id="Caminho_3301" data-name="Caminho 3301" d="M0,0A2.179,2.179,0,0,0,1.134-.318,11.211,11.211,0,0,0,5.853-6.527H4.325a6.529,6.529,0,0,1-2.839-.646A6.762,6.762,0,0,1-1.138-3.95a2.116,2.116,0,0,0-.705,2.936A2.168,2.168,0,0,0,0,0" fill="#fff"/>
      </g>
      <g id="Grupo_131" data-name="Grupo 131" transform="translate(6.517 -59.812)">
        <path id="Caminho_3302" data-name="Caminho 3302" d="M0,0H19.774V-12.459L-.672-5.869A2.137,2.137,0,0,0-2.164-3.841v1.707A2.149,2.149,0,0,0,0,0Z" fill="#fff"/>
      </g>
    </g>
    <g id="Grupo_133" data-name="Grupo 133" transform="translate(46.876 -26.173)">
      <path id="Caminho_3304" data-name="Caminho 3304" d="M0,0-3.3-13.439H-11.33Z" fill="#fff"/>
    </g>
    <g id="Grupo_134" data-name="Grupo 134" transform="translate(30.618 -66.192)">
      <path id="Caminho_3305" data-name="Caminho 3305" d="M0,0V7.8H9.175Z" fill="#fff"/>
    </g>
    <g id="Grupo_137" data-name="Grupo 137" clip-path="url(#clip-path)">
      <g id="Grupo_135" data-name="Grupo 135" transform="translate(43.295 -46.36)">
        <path id="Caminho_3306" data-name="Caminho 3306" d="M0,0V-7.8c-.139.028-7.792.042-7.792.042Z" fill="#fff"/>
      </g>
      <g id="Grupo_136" data-name="Grupo 136" transform="translate(39.696 -43.88)">
        <path id="Caminho_3307" data-name="Caminho 3307" d="M0,0-9.079-9.044V.019A2.284,2.284,0,0,1-8.8,0Z" fill="#fff"/>
      </g>
    </g>
    <g id="Grupo_138" data-name="Grupo 138" transform="translate(20.619)">
      <path id="Caminho_3309" data-name="Caminho 3309" d="M0,0H32.674L4.791-19.539Z" fill="#fff"/>
    </g>
    <g id="Grupo_139" data-name="Grupo 139" transform="translate(30.618 -72.836)">
      <path id="Caminho_3310" data-name="Caminho 3310" d="M0,0V1.009L12.677,11.79V0Z" fill="#fff"/>
    </g>
    <g id="Grupo_140" data-name="Grupo 140" transform="translate(30.238 -39.232)">
      <path id="Caminho_3311" data-name="Caminho 3311" d="M0,0-3.709,15.127H12.754Z" fill="#fff"/>
    </g>
    <g id="Grupo_142" data-name="Grupo 142" clip-path="url(#clip-path)">
      <g id="Grupo_141" data-name="Grupo 141" transform="translate(32.57 -19.838)">
        <path id="Caminho_3312" data-name="Caminho 3312" d="M0,0,19.053,13.024,15.836-.095A2.165,2.165,0,0,1,15.2,0Z" fill="#fff"/>
      </g>
    </g>
  </g>
</svg>
