<svg xmlns="http://www.w3.org/2000/svg" width="25.41" height="17.865" viewBox="0 0 25.41 17.865">
  <path id="Icon_awesome-youtube" data-name="Icon awesome-youtube" d="M25.928,7.3a3.193,3.193,0,0,0-2.246-2.261C21.7,4.5,13.755,4.5,13.755,4.5s-7.946,0-9.927.534A3.193,3.193,0,0,0,1.581,7.3a33.493,33.493,0,0,0-.531,6.156,33.493,33.493,0,0,0,.531,6.156,3.145,3.145,0,0,0,2.246,2.225c1.982.534,9.927.534,9.927.534s7.946,0,9.927-.534a3.145,3.145,0,0,0,2.246-2.225,33.493,33.493,0,0,0,.531-6.156A33.493,33.493,0,0,0,25.928,7.3ZM11.156,17.229V9.673L17.8,13.451l-6.641,3.778Z" transform="translate(-1.05 -4.5)" fill="#b7b7b7"/>
</svg>
